<?xml version="1.0" standalone="no"?>
<!DOCTYPE svg PUBLIC "-//W3C//DTD SVG 1.1//EN" "http://www.w3.org/Graphics/SVG/1.1/DTD/svg11.dtd" >
<svg>
<metadata>
Created by FontForge 20090914 at Sat Aug 20 00:35:11 2011
 By www-data
Typeface Love Moi Kingdom Blvd. 2008. All Rights Reserved See kingdomblvd.com for more info.
</metadata>
<defs>
<font id="LoveMoi" horiz-adv-x="40" >
  <font-face 
    font-family="Love Moi"
    font-weight="400"
    font-stretch="normal"
    units-per-em="2048"
    panose-1="2 0 0 0 0 0 0 0 0 0"
    ascent="1638"
    descent="-410"
    x-height="324"
    cap-height="800"
    bbox="5 -444 1044 1280"
    underline-thickness="150"
    underline-position="-142"
    unicode-range="U+0020-U+F005"
  />
<missing-glyph horiz-adv-x="1064" 
d="M20 0v1280h1024v-1280h-1024zM52 32h960v1216h-960v-1216z" />
    <glyph glyph-name=".notdef" horiz-adv-x="1064" 
d="M20 0v1280h1024v-1280h-1024zM52 32h960v1216h-960v-1216z" />
    <glyph glyph-name="space" unicode=" " horiz-adv-x="300" 
 />
    <glyph glyph-name="space" unicode="&#xa0;" horiz-adv-x="300" 
 />
    <glyph glyph-name="exclam" unicode="!" horiz-adv-x="86" 
d="M25 800c15.333 -6 24.667 -20.667 28 -44v-78l-16 -217l8 -211c-14.667 8 -22.667 24.667 -24 50l-12 139l12 344zM37.001 117c19.333 -6 33.999 -22.667 43.999 -50l-32 -67c-22 4 -36.667 20.667 -44 50c8.66699 22 19.334 44.333 32.001 67zM45 72l-8.00098 -28
c4.66699 8.66699 7.33398 18 8.00098 28z" />
    <glyph glyph-name="quotedbl" unicode="&#x22;" horiz-adv-x="164" 
d="M100 996c13.333 -4.66699 22.667 -15.333 28 -32v-52l16 -80l-4 -12l-32 28l-8 44l-4 92zM24.001 984.001c19.333 -12.667 31.333 -32.667 36 -60l12 -48l-4 -32c-18 14 -30 34 -36 60l-12 64z" />
    <glyph glyph-name="numbersign" unicode="#" horiz-adv-x="752" 
d="M526 700l34 -6l-39 -94l39 -17l72 11h83l17 -33l-184 -17l-61 -22l-78 -172l50 -17l156 -5c22 -2.66699 38.667 -14 50 -34l-55 -11l-178 11l-50 -27l-28 -56l-56 -189l-33 -11l-6 39l78 239l-139 -22l-111 -267l-34 6l34 133l55 111l-105 -22l-17 11l45 39l66 16l56 28
l89 156l-39 16l-67 -11l-61 -27l-56 22c3.33301 20.667 16.333 33.667 39 39l78 5l134 28l33 50l22 61l34 11l5 -39l-28 -50l45 -16l56 22zM421 528l-89 -22l-101 -189l117 11l73 133l16 61z" />
    <glyph glyph-name="dollar" unicode="$" horiz-adv-x="384" 
d="M236 680l24.001 -5.00098l-8 -51l-16 -42l60 -47l8 -47l-20 -5l-36 52l-20 9l-40 -159l8 -15l48 -32l80 -85l28 -56l12 -75l-28 -61l-56 -23l-128 23l-4 -61l-20 5l-8 79l-32 52l24 9l12 -18l16 178l12 51l-104 75l-28 57c3.33301 20.667 12.666 39.334 27.999 56.001
l52 28l68 14h40zM144.001 552.999l-56 -18l-40 -38l32 -47l80 -56l36 141c-14 11.333 -31.333 17.333 -52 18zM180.001 337.999l-12 -47l-16 -164l20 -38l104 -19l28 10l24 28l8 33l-20 56l-44 70z" />
    <glyph glyph-name="percent" unicode="%" horiz-adv-x="556" 
d="M249 700c36 -12 66.333 -39.332 91 -81.999c-12.667 -44 -36.667 -79.667 -72 -107l-59 -17l-19 17v65c20 35.333 39.667 76.666 59 123.999zM497 684.001l39 -9l-33 -74l-444 -601l-39 8l39 74zM275 618.001l-20.001 -50c12.667 13.333 19.334 30 20.001 50z
M326.999 239.001l72 -58.001l-26 -99h-59l-20 50c8 34.667 19 70.334 33 107.001zM339.999 156l13 -15.999c-0.666992 7.33301 -5 12.666 -13 15.999z" />
    <glyph glyph-name="ampersand" unicode="&#x26;" horiz-adv-x="848" 
d="M395 800l121 -7l96 -34l25 -54l-19 -34l-70 -61l-76 -47l-134 -55l19 -40l471 -427v-41l-57 27l-64 61l-76 41l-77 -48l-318 -61l-114 14l-70 54l-32 102l32 108l108 143l108 74l-19 54v123l57 67zM414 753l-89 -41l-38 -88c2.66699 -31.333 17.667 -54 45 -68l172 81
l70 55l-51 47zM287 475l-133 -109l-51 -68l-32 -88l19 -95l70 -40l64 -7l330 68l39 54z" />
    <glyph glyph-name="quotesingle" unicode="'" horiz-adv-x="96" 
d="M20 996l32 -24l16 -36l8 -44l-16 -36l-24 4l12 36c-18 52 -27.333 85.333 -28 100z" />
    <glyph glyph-name="parenleft" unicode="(" horiz-adv-x="300" 
d="M183 820l39 -5l-13 -34l-91 -139l-39 -116l-13 -111l13 -82l39 -111l91 -140l52 -34l19 -48l-65 24l-45 39l-98 140l-39 111l-13 135l20 125l71 159z" />
    <glyph glyph-name="parenright" unicode=")" horiz-adv-x="404" 
d="M20 820l89 -27l151 -128l62 -113l62 -188v-75l-98 -166l-159 -123l-54 5l18 33l62 37l98 86l62 112v140l-71 182l-80 96l-115 81c-15.333 13.333 -24.333 29.333 -27 48z" />
    <glyph glyph-name="asterisk" unicode="*" horiz-adv-x="344" 
d="M103 1050l48 -87l48 56l6 -31l-24 -50l125 31l18 -12l-143 -44l71 -87l-17 -25l-54 81c-22 -5.33301 -38 -22 -48 -50c-7.33301 -29.333 -23 -50 -47 -62l41 87l12 50l-107 -13l-12 19l125 13z" />
    <glyph glyph-name="plus" unicode="+" horiz-adv-x="340" 
d="M148 436l24 -4v-116l60 8h72l16 -24l-144 -12v-88h-28v80l-124 -16l-4 16l112 32l12 56v56z" />
    <glyph glyph-name="comma" unicode="," horiz-adv-x="124" 
d="M68 38l36 -28l-8 -48l-20 -40l-32 -28l-24 4l12 24l28 28l16 44c-4 12 -6.66699 26.667 -8 44z" />
    <glyph glyph-name="hyphen" unicode="-" horiz-adv-x="300" 
d="M196 448l76 -4.00098l8 -24l-240 -20l-12 4l-8 24c93.333 8.66699 152 15.334 176 20.001z" />
    <glyph glyph-name="hyphen" unicode="&#xad;" horiz-adv-x="300" 
d="M196 448l76 -4.00098l8 -24l-240 -20l-12 4l-8 24c93.333 8.66699 152 15.334 176 20.001z" />
    <glyph glyph-name="period" unicode="." horiz-adv-x="88" 
d="M27 38l41 -7l-7 -41l-41 7z" />
    <glyph glyph-name="slash" unicode="/" horiz-adv-x="408" 
d="M364 800l24 -5l-8 -39l-336 -756l-24 5l28 94z" />
    <glyph glyph-name="zero" unicode="0" horiz-adv-x="392" 
d="M192 780l56 -9l28 -46l28 -92l-16 -4l-28 45l-16 51l-40 18l-44 -23l-64 -146l-28 -115l-20 -197l8 -65l32 -110l32 -37l44 -18l48 18l52 88l36 105l44 243l-12 133l-16 51l-28 46l40 -14l24 -46l12 -60l8 -137l-32 -184l-52 -160l-52 -87l-40 -28h-52l-52 32l-28 41
l-36 106l-8 64v74l16 128l44 170l68 142z" />
    <glyph glyph-name="one" unicode="1" horiz-adv-x="328" 
d="M136 780l24 -4.99902l-8 -47l20 -676l136 14l-16 -33l-68 -5l-120 -28h-56l-12 9c11.333 17.333 27.333 28.666 48 33.999l56 14l8 75l-24 549l-44 -52l-44 -38l-16 5l60 80z" />
    <glyph glyph-name="two" unicode="2" horiz-adv-x="496" 
d="M284 780l52 -9l40 -23l24 -41l16 -50l4 -64l-16 -114l-16 -46l-24 -109l-80 -151l8 -13l184 -92l-12 -27l-204 96l-100 -91l-80 -46l-48 9l-12 14l4 41l16 45l28 37l36 27l48 14l104 -5l24 37l60 137l40 150l12 105l-12 69l-24 36l-36 28h-48l-48 -19l-32 -27l-56 -73
l-40 -82l-24 -14l-4 23l20 50l48 78l60 68zM152 155l-52 -27l-36 -41l-16 -41l8 -14l56 18l84 69l24 32z" />
    <glyph glyph-name="three" unicode="3" horiz-adv-x="504" 
d="M208 780h64l44 -20l36 -35l20 -49l-8 -65l-20 -55l-28 -39l80 -50l32 -35l24 -49l32 -110l-4 -69l-12 -65l-20 -50l-64 -69l-48 -20h-116l-100 25l-72 64l-20 50l-8 45l28 64l28 20l12 -10l-24 -44l-12 -55l20 -50l32 -34l44 -20l104 -25l108 15l36 30l28 39l20 50l12 60
l-8 69l-16 55l-52 84l-36 30l-44 20h-56c0.666992 17.333 8.66699 29 24 35l60 79l16 55l-16 54l-36 30l-52 10l-52 -10l-40 -30l-28 -39c-6 -17.333 -16.667 -27.333 -32 -30l8 55l32 39l36 30z" />
    <glyph glyph-name="four" unicode="4" horiz-adv-x="392" 
d="M140 780l24.001 -4.99902l-52 -268l-44 -136l104 27l88 -5l28 82l32 201c2 31.333 12.667 58.666 32 81.999l8 -33l-16 -65l-40 -267l28 -6c23.333 -8 36.666 -28 39.999 -60l-72 28l-16 -99l-20 -256l-24 5l28 350l-96 5l-144 -49l-8 16l100 355z" />
    <glyph glyph-name="five" unicode="5" horiz-adv-x="608" 
d="M462 780l43.001 -5.00098l-4 -25l-258 -46h-106l-20 -172l10 -15l19 15l117 35l68 -5l63 -15l102 -46l39 -40l53 -101l-5 -71l-34 -122l-34 -45l-39 -36l-97 -56l-63 -15l-131 -15l-126 25c-15.333 8.66699 -28.333 22.334 -39 41.001l15 10l97 -35h131l126 30l49 25
l72 76l25 56l19 111l-29 71l-73 76l-53 20l-127 26l-116 -36l-29 -45l-44 -26l-5 21l25 263c7.33301 20 21.666 32 42.999 36l44 -11l214 31z" />
    <glyph glyph-name="six" unicode="6" horiz-adv-x="638" 
d="M260 780l36.999 -5l-141 -193l-68 -170l-19 -99v-99l43 -82l105 -77l50 126l104 143l74 50l105 21c26.667 -15.333 47.334 -37 62.001 -65l6 -61l-43 -126l-56 -66l-74 -50l-104 -27l-99 5l-105 44l-62 61l-43 82l-12 105l43 192l37 88l99 143zM512.999 357l-60.999 -27
l-44 -33l-104 -138l-44 -110l68 -11l124 39l80 82l43 110l-12 61c-12.667 12 -29.334 21 -50.001 27z" />
    <glyph glyph-name="seven" unicode="7" horiz-adv-x="612" 
d="M26 780l81.999 -42l116 -10l339 42l29 -6l-18 -67l-361 -697h-35l17 62l344 671l-35 -10l-344 -31l-82 10v-31c-1.33301 -28.667 -14.666 -54.667 -39.999 -78l-12 15l12 78l-18 78z" />
    <glyph glyph-name="eight" unicode="8" horiz-adv-x="496" 
d="M338 780h71l62 -55l5 -41l-46 -100l-123 -156l61 -30l52 -46l25 -65l5 -40l-15 -36l-87 -100l-113 -76l-66 -25l-67 -10l-77 40l-5 41l10 40l67 121l128 151l-26 45l-51 40l-31 60l-5 41l10 40l36 60l113 76zM353 745l-61 -20l-47 -26l-76 -70l-21 -55l21 -56l76 -70
l41 20l103 126l51 95l-25 46c-18 4.66699 -38.667 8 -62 10zM276 398l-164 -202l-56 -126l51 -35l72 20l61 31l108 75l41 45l26 61l-26 65c-53.333 34.667 -91 56.667 -113 66z" />
    <glyph glyph-name="nine" unicode="9" horiz-adv-x="436" 
d="M236 780l60 -9l40 -27l25 -35v-54c-16.667 0.666992 -26.667 9.66699 -30 27l-20 40l-55 27l-35 -9l-41 -22l-85 -103l-20 -40l-20 -85l25 -53l35 -27l55 -9l96 31l90 98l15 107l15 49l30 -35v-58l-25 -94l-45 -499l-25 36l30 419l-90 -67l-56 -14l-60 -4l-50 13l-40 27
l-25 36l-10 49l10 53l35 89l85 103l40 22z" />
    <glyph glyph-name="colon" unicode=":" horiz-adv-x="100" 
d="M32 694l28 -12l-12 -24l-28 4zM52 494l24 -4l4 -24l-12 -16l-28 12z" />
    <glyph glyph-name="semicolon" unicode=";" horiz-adv-x="116" 
d="M32 198l32 -12l-12 -32l-32 12zM44 98l40 -24l12 -44l-8 -52c-9.33301 -9.33301 -21.333 -16 -36 -20l16 64h-28l-20 40z" />
    <glyph glyph-name="semicolon" unicode="&#x37e;" horiz-adv-x="116" 
d="M32 198l32 -12l-12 -32l-32 12zM44 98l40 -24l12 -44l-8 -52c-9.33301 -9.33301 -21.333 -16 -36 -20l16 64h-28l-20 40z" />
    <glyph glyph-name="less" unicode="&#x3c;" horiz-adv-x="636" 
d="M592 736l24 -4l-12 -24l-92 -84l-452 -248l160 -76l320 -208l56 -60l12 -28l-16 -4l-232 180l-340 188l28 36l384 200z" />
    <glyph glyph-name="equal" unicode="=" horiz-adv-x="436" 
d="M156 578h204l16 -8l-12 -20l-244 -4l-88 -16l-12 24l12 8zM56 394l44 -8l316 -12l-4 -24l-296 8l-64 12z" />
    <glyph glyph-name="greater" unicode="&#x3e;" horiz-adv-x="632" 
d="M128 776l144 -151l340 -285l-20 -38l-460 -259l-104 -43l-8 16l28 33l432 226l88 59l-408 356c-18 20 -28.667 48.667 -32 86z" />
    <glyph glyph-name="question" unicode="?" horiz-adv-x="372" 
d="M168 836l80 -5l60 -27l36 -54l8 -64l-24 -91l-28 -59l-144 -209l-28 -63l8 -28l28 -4l40 13l8 -4l-12 -27l-32 -14l-36 4c-16.667 12.667 -28.667 31 -36 55l24 68l148 209l52 127l4 37l-8 41l-40 45l-68 18l-68 -13l-52 -37l-40 -50l-4 -22l-24 4l4 32l36 54l52 37z
M192 150c16.667 -0.666992 30 -9.66699 40 -27l-12 -14l8 -32l-20 -50l-36 -27l-44 23l-4 41l32 59zM180 105l-27.999 -69h20l28 32c-4.66699 12.667 -11.334 25 -20.001 37z" />
    <glyph glyph-name="at" unicode="@" horiz-adv-x="516" 
d="M252 660h68l76 -32l48 -40l28 -60l20 -68l4 -52l-20 -96l-32 -56l-40 -48l-60 -24l-52 -4l-24 8c-14.667 12 -28 28 -40 48v16l-48 -20c-21.333 6 -36 20.667 -44 44l68 104l60 32l44 4l16 -24l4 -44l-16 -24l-28 8l-28 -72l8 -28c16 -14 36 -22 60 -24l64 24l36 48
l28 60l12 72l-4 60l-24 76l-44 44l-52 32l-76 8l-68 -20l-92 -80l-32 -56l-24 -152l12 -72l24 -64l32 -52l40 -48l48 -40l64 -20l68 16l96 76c4 16 14.667 28 32 36l4 -20l-32 -56l-44 -40l-60 -28l-76 -12l-64 24l-52 36l-76 96l-44 132v84l36 136l76 100l56 32zM276 388
l-44 -24l-60 -80l-4 -20l8 -4l20 8l36 32l20 44l44 8v32z" />
    <glyph glyph-name="A" unicode="A" horiz-adv-x="540" 
d="M268 802c25.333 -0.666992 49.334 -11.333 72.001 -32l28 -68l12 -87v-96l-12 -87l20 -68l-4 -139l28 -123l48 -48l60 24c-4 -23.333 -17.333 -40.666 -40 -51.999c-22.667 2 -45.334 10 -68.001 24l-32 63l-20 80l-4 44l-44 -104l-44 -55l-52 -44l-68 -28l-48 -4l-28 20
c-14.667 17.333 -26.667 38.666 -36 63.999l-16 83v96l72 322l68 127l44 52c18 12.667 39.333 24.667 64 36zM280.001 774.001l-48 -24l-36 -32l-28 -39l-64 -144l-56 -286v-68l8 -60l16 -51l32 -36l16 -4l40 8l44 24l68 67l24 44l40 100l24 111l-32 12l16 52l8 59l-4 136
l-8 59l-20 48c-10.667 9.33301 -24 17.333 -40 24z" />
    <glyph glyph-name="B" unicode="B" horiz-adv-x="587" 
d="M251 774c22.667 -0.666992 46.667 -7.66992 72 -21.0029l16 -26l-4 -51l-28 -69l-68 -81l116 -9l68 -25l52 -39l80 -107l12 -85l-20 -73l-36 -60l-44 -51l-112 -73l-68 -25l-68 -5l-12 9c-17.333 10.667 -32 26.334 -44 47.001l-4 38l24 4l4 -25
c10 -17.333 26 -31.666 48 -42.999l76 13l64 30l100 81l64 124l-12 81l-84 107l-56 35l-72 21l-84 -4l-124 -52c4 22.667 16 40 36 52l104 85l40 52l24 68c-6 22.667 -20.667 38.334 -44 47.001l-72 -21l-108 -77l-44 -47l28 -616l-20 4l-31 697h23v-30l80 64z" />
    <glyph glyph-name="C" unicode="C" horiz-adv-x="456" 
d="M200 800l52 -5l40 -26l28 -31l24 -41l36 -97l12 -103l-8 -10c-14 2.66699 -22 14.667 -24 36l-8 62l-32 97l-28 41l-32 26l-44 15l-40 -15l-36 -26l-44 -87l-28 -108l-20 -179l12 -128l40 -93l60 -61l40 -21l44 -10l52 5l44 15l32 31l24 36l12 56l-8 52l32 -26l4 -46
l-20 -67l-24 -36l-36 -30l-88 -26l-100 15l-96 93l-40 87l-12 128l16 190l40 164l48 77l36 31z" />
    <glyph glyph-name="D" unicode="D" horiz-adv-x="520" 
d="M188 800h64l56 -11l88 -48l36 -44l52 -97l12 -65l4 -81l-28 -135l-52 -97l-96 -125l-124 -92l-36 -5l-12 11l-4 27h36l152 130l92 135l36 119l8 70l-8 76l-24 54l-60 86l-88 49l-60 5l-108 -21l-60 -27l40 -173l28 -217l8 -275l-24 16l-8 76l-8 243l-52 270l-28 43
c2 20 10 34.667 24 44l44 27z" />
    <glyph glyph-name="E" unicode="E" horiz-adv-x="528" 
d="M292 800l24.001 -5l-8 -31l-220 -118l-12 -15l12 -57l8 -153l24 5l128 66l4 -25l-36 -31l-112 -57l-4 -15l20 -292c1.33301 -12.667 6.66602 -23 15.999 -31l328 118l44 -10c-7.33301 -17.333 -19.333 -26 -36 -26l-292 -97l-36 -21l-32 -5l-8 10l-12 52l-36 559h-36
l16 41l224 112z" />
    <glyph glyph-name="F" unicode="F" horiz-adv-x="392" 
d="M348 800l24 -5.00098l-28 -40l-256 -90c-23.333 -4.66699 -35.333 -23 -36 -55l24 -175l164 65l4 -25l-56 -35l-60 -25c-18 -5.33301 -32.667 -18.666 -44 -39.999l52 -345l-4 -30l-28 35l-76 525l-8 155l24 -5l16 -15l108 25z" />
    <glyph glyph-name="G" unicode="G" horiz-adv-x="528" 
d="M304 800l56 -5l48 -42l20 -61l-8 -76l-20 -4v47l-12 66l-36 37l-16 5l-44 -9l-40 -33l-68 -90l-100 -211l-32 -128l-4 -51l20 -85l28 -47l36 -42l44 -29l40 -9l80 14l48 24l84 70l40 61l-8 43l-36 37l-52 24l-108 -14l-4 14l44 33l60 9l96 52l44 5l4 -24l-8 -155l8 -75
l-24 -15l-8 15l-120 -109l-48 -23l-104 -19l-68 28l-44 33l-32 47l-24 52l-16 66l16 146l20 56l100 217l60 94l40 37zM420 344l16 -29l36 -14l4 66z" />
    <glyph glyph-name="H" unicode="H" horiz-adv-x="416" 
d="M24 800c14 -4.66699 22 -15.667 24 -33l12 -767c-13.333 3.33301 -21.333 13 -24 29l-8 46l-8 675zM368 775l24 -4l-12 -363l16 -41l-20 -46l4 -133l16 -96l-16 -4l-24 45l-8 217l-212 -21l-52 13l4 21l40 -5l176 17l48 17z" />
    <glyph glyph-name="I" unicode="I" horiz-adv-x="92" 
d="M36 800l24.001 -5.00098l-12 -177l24 -589l-8 -29l-24 5l4 39l-24 643c3.33301 40.667 8.66602 78.334 15.999 113.001z" />
    <glyph glyph-name="J" unicode="J" horiz-adv-x="504" 
d="M456 800c16.667 -0.666992 26 -10 28 -28l-140 -32l-20 -32l44 -539l-12 -105l-28 -32l-36 -24l-48 -8l-52 8l-80 36l-64 52l-20 41l-8 48l20 40l24 16l12 -8l-28 -64l4 -20l24 -36l28 -29l36 -24l40 -16l84 -16l48 28l20 36l8 49v116l-40 430l-20 33l-136 -41l-40 -20
l-16 4l12 28z" />
    <glyph glyph-name="K" unicode="K" horiz-adv-x="484" 
d="M28 800c14.667 -8 22.667 -24.333 24 -49l-4 -361l48 78l160 317l24 15l4 -24l-208 -410l44 -20l76 -48l168 -166l40 -25l60 -73l-12 -14l-28 14l-32 34l-40 25l-164 166l-76 53l-64 25l8 -254l8 -63l-24 -20l-20 151z" />
    <glyph glyph-name="L" unicode="L" horiz-adv-x="440" 
d="M60 800c17.333 -8.66699 28 -26.999 32 -54.999l-28 -428l-12 -81v-201l148 61l116 20l76 -20l28 -15l-8 -31l-56 25l-52 6l-140 -31l-48 -30l-56 -20c-18.667 3.33301 -32 16.666 -40 39.999l44 685z" />
    <glyph glyph-name="M" unicode="M" horiz-adv-x="604" 
d="M460 800c20 -12.667 32 -33.001 36 -61.001l88 -687v-52l-24 14l-92 739l-16 -19l-60 -127l-96 -381l-12 -85c-18 8.66699 -32.667 24.334 -44 47.001l-136 236l-48 117l32 -329v-198l-24 19l-44 682l4 14l24 -14l36 -155l52 -136l128 -212l76 334l80 202z" />
    <glyph glyph-name="N" unicode="N" horiz-adv-x="380" 
d="M264 800c15.333 -9.33301 25.998 -25.333 31.998 -48l56 -335l8 -230l-16 -144l-28 -43l-48 19l-28 48l-196 537l28 -288l-12 -225c-1.33301 -21.333 -10.666 -34 -27.999 -38l12 143l-24 441c2.66699 22 13.334 38 32.001 48l152 -460l72 -153l32 -34l16 63l8 148
l-8 149l-64 383z" />
    <glyph glyph-name="O" unicode="O" horiz-adv-x="708" 
d="M360 800h68l52 -34l20 8l60 -29l48 -47l36 -55l24 -69l16 -76l4 -81l-12 -94l-44 -144l-36 -56l-48 -46l-52 -34l-64 -30l-76 -13l-84 9l-136 46l-48 43l-40 51l-20 72l-8 90l12 80l24 69l92 187l92 93l52 39zM372 770l-68 -21.001l-48 -34l-84 -89l-32 -52l-56 -119
l-36 -136l4 -68l20 -81l36 -51l44 -38l124 -43l76 -8l72 13l56 25l52 34l40 43l36 55l24 60l16 68l12 149l-16 85l-24 64l-32 51l-44 42l-32 21l-16 -12l-60 25c-18.667 10.667 -40 16.334 -64 17.001z" />
    <glyph glyph-name="P" unicode="P" horiz-adv-x="492" 
d="M216 800l48 -0.000976562l96 -18l60 -23l36 -45c9.33301 -22 14.666 -48 15.999 -78l-20 -63l-40 -46l-48 -36l-52 -27l-180 -64l20 -245v-73l-24 -82l-24 5l12 50l8 77l-20 245l-28 18l12 28c10 18.667 15.333 41.334 16 68.001l12 236l-8 9l-56 -22l-8 -9l-24 4l16 32
l52 27c62.667 13.333 105.334 24 128.001 32zM124 744.999l20 -18l-12 -295l152 54l104 59l40 46l16 68l-32 55l-48 31l-64 19l-60 4z" />
    <glyph glyph-name="Q" unicode="Q" horiz-adv-x="632" 
d="M332 800l52 -0.00195312l32 -16l44 -54l-4 -16l-68 53l-36 4l-84 -33l-100 -90l-44 -57l-60 -136l-16 -82l4 -82l24 -86l40 -57l56 -41l72 -25l80 16l60 37l52 50l12 20l-72 90l-36 62v29l36 -29l84 -115c16.667 2.66699 30 12.334 40 29.001l36 61l12 50l-4 32l-24 78
l-76 115l-52 45c-16.667 8.66699 -30 22.334 -40 41.001l20 4l60 -36l92 -107l32 -66l20 -78l-12 -86l-72 -127l84 -111l36 -61l-4 -25c-16 6.66699 -28 19 -36 37l-80 115l-28 20l-20 -28l-56 -41l-68 -33l-80 -17l-76 25l-60 37l-44 53l-28 70l-12 135l24 128l112 184
l108 86z" />
    <glyph glyph-name="R" unicode="R" horiz-adv-x="756" 
d="M284 800l120.001 -5l52 -15l36 -29l20 -50l-12 -59l-52 -89l-212 -153l12 -20l96 -29l132 -65l196 -133l64 -25l-16 -29l-92 39l-156 109l-84 44l-144 50v-336l-20 -5l-8 69l-4 267l-28 64l24 49l-32 282l-76 -35l-36 -24c-6.66699 -16.667 -17.334 -26.667 -32.001 -30
l-12 15l12 34l40 30l84 44l4 25l24 -15zM296.001 765l-60.001 -14c-15.333 -4 -24.666 -15.667 -27.999 -35l28 -272l64 35l124 99l32 39l24 55l-12 59l-48 25z" />
    <glyph glyph-name="S" unicode="S" horiz-adv-x="540" 
d="M316 800l68 -5l52 -24l32 -49l8 -49l-4 -19l-28 -20l-12 93l-44 29l-60 10l-112 -39l-88 -64l-64 -92l-12 -59l32 -44l52 -24l224 -68l100 -54l36 -39l20 -63l4 -54l-36 -73l-36 -39l-48 -30l-52 -19l-68 -5l-60 10l-108 44l-40 34l-36 44l4 24l72 -58l100 -49l60 -15h56
l64 25l44 29l36 44l20 58l-16 69l-36 39l-100 53l-228 64l-48 29l-36 39l-8 54l32 73l64 92l92 59z" />
    <glyph glyph-name="T" unicode="T" horiz-adv-x="608" 
d="M556 800l32 -5l-20 -37l-28 -16l-32 5l-216 -69l8 -561l8 -96l-24 -21l-8 42l-12 604l-12 16l-156 -58l-68 -16l-8 32z" />
    <glyph glyph-name="U" unicode="U" horiz-adv-x="576" 
d="M24 800c16 -6.66699 25.333 -21.667 28 -45l4 -438l32 -181l24 -45l32 -36l44 -15l56 -5l52 10l152 101l28 40l44 91l8 65l-8 61l-112 306l8 71c13.333 -1.33301 20 -11.333 20 -30l8 -66l96 -246l12 -61l4 -70l-12 -60l-48 -86l-60 -75l-80 -51l-88 -35h-60l-52 10
l-36 25l-56 81l-28 115l-12 131l-4 423z" />
    <glyph glyph-name="V" unicode="V" horiz-adv-x="496" 
d="M20 800c23.333 -10 42 -29.667 56 -59l272 -644l28 395l44 211l32 86l24 -5l-48 -162l-32 -222l-24 -400c-16 8.66699 -28 25 -36 49l-288 670c-12 22 -21.333 49 -28 81z" />
    <glyph glyph-name="W" unicode="W" horiz-adv-x="500" 
d="M348 800l43.999 -36l24 -52l40 -124l24 -206l-8 -98l-48 -114l-36 -41l-40 -5l-52 51l-28 52l-20 57l-20 -36l-12 -73l-68 -175l-48 15l-16 68l-44 547l-20 62l8 56h20l56 -619l20 -98l20 26l40 118l28 135l4 82l-8 103l28 -15l8 -77l16 -68l44 -113l36 -41l44 -16
l52 109l16 129l-24 165l-36 124l-28 51c-7.33301 16 -12.666 35 -15.999 57z" />
    <glyph glyph-name="X" unicode="X" horiz-adv-x="488" 
d="M444 800l24 -5l-4 -43l-16 -57c-13.333 -2 -22.666 -11.667 -27.999 -29l-140 -283l16 -43l28 -43l92 -187l36 -110l-36 24l-16 53l-120 234l-28 29l-136 -283c-4.66699 -18 -15.334 -29 -32.001 -33l8 57l140 283l-16 43l-156 259l-32 38l-8 29h24l192 -297l28 -19z" />
    <glyph glyph-name="Y" unicode="Y" horiz-adv-x="556" 
d="M20 800l40.001 -17l232 -329l4 14l212 315l24 7l4 -18l-20 -38l-212 -315l8 -416l-20 -3l-8 45l-8 336l-8 42l-36 69l-180 242c-18.667 30.667 -29.334 52.667 -32.001 66z" />
    <glyph glyph-name="Z" unicode="Z" horiz-adv-x="872" 
d="M116 800l76.001 -24l552 15l80 -15l24 -14l4 -42l-8 -14l-756 -654l224 56h180l248 -42l12 -28l-388 42l-88 -9l-220 -71l-36 5l16 47l760 649l24 38l-28 9l-616 -4l-16 4c-26.667 2.66699 -41.334 20 -44.001 52z" />
    <glyph glyph-name="bracketleft" unicode="[" horiz-adv-x="404" 
d="M288 887l44 -12v-24l-24 8l-228 -12l20 -512l-28 -252v-52l-20 -140l48 12l204 12l44 -12l36 -20l-36 -12l-40 16l-48 4l-152 -16l-76 -20l-8 8l-4 32l52 472l-20 480l28 28z" />
    <glyph glyph-name="backslash" unicode="\" horiz-adv-x="796" 
d="M20 908l36.001 -20l212 -256l56 -100l172 -244l48 -56l220 -196l12 -36l-152 112l-104 104l-464 628l-28 24c-4.66699 12 -7.33398 25.333 -8.00098 40z" />
    <glyph glyph-name="bracketright" unicode="]" horiz-adv-x="416" 
d="M148 855l180 -4l40 -16l-8 -98l36 -865l-156 -4l-68 -13l-4 17c22 12.667 47.333 20.667 76 24h120l-32 849l8 73l-52 8l-244 -12l-24 8l4 25l40 -4z" />
    <glyph glyph-name="asciicircum" unicode="^" horiz-adv-x="312" 
d="M168 1108l28 -28l48 -156l48 -100l-4 -20l-24 8l-92 224l-24 -64l-96 -156l-32 -16l12 40l76 124c32.667 68 52.667 116 60 144z" />
    <glyph glyph-name="underscore" unicode="_" horiz-adv-x="596" 
d="M136 46l372 -24l64 -12l4 -20l-416 28l-124 -16l-12 4l-4 20c53.333 7.33301 92 14 116 20z" />
    <glyph glyph-name="grave" unicode="`" horiz-adv-x="176" 
d="M20 928l44 -28.001l72 -60l20 -40l-48 24l-72 60c-8 12.667 -13.333 27.334 -16 44.001z" />
    <glyph glyph-name="a" unicode="a" horiz-adv-x="312" 
d="M216 460c18 -0.666992 34 -8.66699 48 -24l16 -52l4 -64l-12 -120l20 -116l-28 -32l-92 -44l-60 -8l-56 12l-36 32v60l68 136l44 24l56 -16l40 -24l16 24l12 104l-16 72l-40 -8l-136 -68l20 44zM132 236l-28 -28l-16 -40l-24 -32l-16 -36v-44l32 -24l48 -4l44 12l72 36
l20 -4l-32 104l-28 28l-32 20z" />
    <glyph glyph-name="b" unicode="b" horiz-adv-x="432" 
d="M24 800c16.667 -7.33301 27.333 -20.667 32 -40l-4 -332l92 84l44 24h52l60 -24l36 -32l52 -84l12 -56l12 -124l-20 -112l-44 -96l-36 -32l-40 -24l-56 -12h-56l-60 24l-32 32l-12 36l20 4l28 -40l48 -20l56 -8l52 16l44 24l32 36l36 100l12 120l-20 112l-24 48l-28 36
l-36 32l-52 16l-56 -12l-68 -64l-44 -92v-208l-28 20l-8 60v572z" />
    <glyph glyph-name="c" unicode="c" horiz-adv-x="484" 
d="M256 612h56l36 -20l24 -32l12 -40l-12 -44l-20 36l-12 44l-28 24l-36 4l-52 -16l-60 -48l-24 -32l-56 -104l-36 -128v-104l12 -44l20 -32l28 -28l40 -16l48 -4l44 8l144 72l52 60l-16 76l8 8l28 -28l8 -48l-12 -40l-24 -32l-100 -64l-76 -32l-84 -8l-60 12l-32 24l-44 64
l-12 44v108l8 44l40 124l60 104l56 52z" />
    <glyph glyph-name="d" unicode="d" horiz-adv-x="412" 
d="M360 760c14.667 -6.66699 24 -18.667 28 -36l4 -360l-12 -112l-28 -92l4 -152l-24 -4l-4 104l-64 -68l-40 -24l-44 -16h-60l-68 52l-24 40l-8 52l4 56l12 48l36 88l76 104l44 20l52 -8l32 -28l8 -24l-20 -4l-52 36l-32 -8l-32 -28l-28 -36l-40 -80l-28 -92l-4 -56l16 -44
l28 -32l36 -24l40 -4l56 20l64 60l24 36l12 48l28 516zM360 484l-4 -216l8 168z" />
    <glyph glyph-name="e" unicode="e" horiz-adv-x="308" 
d="M120 320l52 -8l36 -16l28 -28l20 -32l-12 -40l-44 12l-48 -4l-84 -28l-20 -32l4 -48l24 -32l32 -24l40 -12l80 28l28 28l24 12l8 -12l-24 -36l-68 -40l-48 -8l-44 8l-36 20l-28 28l-16 36l-4 56l28 84l40 64zM132 292l-32 -28l-24 -36l24 -8l48 16l76 -4l-48 48z" />
    <glyph glyph-name="f" unicode="f" horiz-adv-x="468" 
d="M208 792l52.001 -8l36 -24l20 -40l12 -44v-108l-16 -72l-24 8l4 56l12 48v52l-36 84l-36 20l-32 -24l-20 -40l-12 -44l-4 -168l16 -104c1.33301 -12.667 6.66602 -24.667 15.999 -36l56 4l160 -16l36 -24l-12 -12l-132 20h-108l-8 -12l60 -208l8 -52l-12 -44l-20 -4v80
l-64 228l-32 8l-52 -12c13.333 -5.33301 20 -16 20 -32l-76 16l4 24l36 20l52 8l40 16l-16 276l8 48l32 84z" />
    <glyph glyph-name="g" unicode="g" horiz-adv-x="372" 
d="M240 385c24 -0.666992 48.001 -8.66797 72.001 -24.001l32 -64c-0.666992 -25.333 -11.334 -46.666 -32.001 -63.999l4 -80l-12 -36l12 -132c24 -7.33301 36 -22 36 -44l-32 4l8 -48v-80l-20 -92l-24 -68l-40 -52c-16 -14.667 -36 -26.667 -60 -36l-36 -4l-40 16l-48 48
l-28 68l-12 84l8 84l24 72l56 36l80 20l84 -12l16 4l-4 64l-44 -32l-48 -16l-32 4l-60 32c-15.333 16.667 -27.333 36.667 -36 60l-4 52l8 32l64 124l48 48c18 11.333 38 22 60 32zM252.001 356.999l-52 -28l-36 -36l-32 -44l-44 -104l12 -64l40 -36l52 -12l48 28l28 44
l4 60l-8 120l24 4l20 -28l8 16l-20 52c-12 12 -26.667 21.333 -44 28zM188.001 -35.001l-68 -16l-44 -32l-20 -56l-8 -72l4 -72l24 -56l32 -44l56 -24l52 24l36 44l24 52l24 132l-4 76c-6 18 -19.333 30 -40 36z" />
    <glyph glyph-name="h" unicode="h" horiz-adv-x="300" 
d="M36 680l24 -3.99902l4 -60l-12 -100v-292l52 136l40 56c19.333 15.333 43.333 23.333 72 24l40 -60l16 -84l8 -272l-4 -16l-20 -4l-24 356c-7.33301 21.333 -22 38.666 -44 51.999l-52 -48l-52 -148l-32 -216l-24 4l4 20l-12 388l12 188l-4 48z" />
    <glyph glyph-name="i" unicode="i" horiz-adv-x="176" 
d="M84 558l24 -4l-4 -40l-24 4zM36 372l24 -4l4 -44l-16 -204l8 -64l24 -48l16 -12l36 24l24 -4l-8 -24l-48 -28l-48 24l-24 52l-8 64l8 236z" />
    <glyph glyph-name="j" unicode="j" horiz-adv-x="348" 
d="M304 424l24 -4l-4 -24l-24 4zM248 284l24 -4l-12 -76l12 -324l-12 -48l-20 -36l-32 -24l-44 -12l-52 8l-40 16l-28 24l-24 36l16 44l12 -36l24 -32l36 -20l44 -12l44 8l28 28l20 40v112l-8 48v216z" />
    <glyph glyph-name="k" unicode="k" horiz-adv-x="392" 
d="M20 624l24 -4l8 -56l4 -380l20 28l92 176l24 8l-8 -44l-128 -228c18 -13.333 39.333 -21.333 64 -24l72 -16l128 -52l52 -8l-8 -24l-76 12l-132 48l-96 16v-64l-24 -12l-16 120l8 28z" />
    <glyph glyph-name="l" unicode="l" horiz-adv-x="108" 
d="M28 788l28 -28l32 -720l-12 -40l-20 4l4 28l-32 664l-8 48z" />
    <glyph glyph-name="m" unicode="m" horiz-adv-x="440" 
d="M328 444l56 -11.999l24 -40l12 -116l-12 -276l-24 16v128l8 120l-12 116l-28 36l-40 -20l-32 -36l-20 -40l-68 -252c-1.33301 -16.667 -9.33301 -31.334 -24 -44.001l-16 52v128l8 56l4 124l-8 28l-16 -8l-32 -36l-20 -40l-28 -100l-12 -224l-20 -4l-8 60v128l12 180
l-12 32l8 12l24 8l12 -76l24 44l28 32l48 20l28 -36l-12 -248l40 140l40 88z" />
    <glyph glyph-name="n" unicode="n" horiz-adv-x="296" 
d="M172 428l60 -20l24 -48l12 -64l8 -288l-24 -8l-16 328l-20 52l-44 12l-40 -36l-44 -104l-44 -240h-12l-12 64l16 264l-8 12v36l24 -8l12 -64v-36l32 76l32 40z" />
    <glyph glyph-name="o" unicode="o" horiz-adv-x="472" 
d="M248 496l56 -4l36 -20l32 -28l24 -76l-4 -12l52 -124l8 -48l-4 -56l-20 -36l-60 -60l-36 -20l-104 -12l-52 8l-76 40l-28 28l-44 76l-8 48l8 52l32 84l48 68l60 56zM260 468l-40 -12l-64 -44l-84 -120l-24 -80l4 -44l36 -68l60 -48l76 -24l92 12l36 16l52 52l16 32l4 48
l-8 40l-52 108l-16 56l8 8l-24 40l-32 20z" />
    <glyph glyph-name="p" unicode="p" horiz-adv-x="372" 
d="M148 347h56l88 -28l28 -28l20 -36l12 -100l-12 -40l-20 -36l-28 -28l-36 -24l-40 -16l-48 -8h-56l-48 8l-16 -28l-4 -188l-24 12v168l24 312l64 44zM160 319l-56 -20l-28 -40l-12 -56l-12 -132c0.666992 -20 12.667 -30.667 36 -32l60 -8l64 8l48 24l36 32l20 48l8 44
l-16 72l-32 36l-52 20c-18.667 2.66699 -40 4 -64 4z" />
    <glyph glyph-name="q" unicode="q" horiz-adv-x="440" 
d="M208 405c21.333 -1.33301 44 -8.00098 68 -20.001l40 -88l-12 -32l-60 -288l-4 -204l92 116l48 40h40l-16 -24l-52 -36l-76 -96l-28 -56l-28 -12l-8 40l-4 132l12 152l-32 -12c-21.333 -9.33301 -45.333 -14.666 -72 -15.999l-52 32l-36 52l-8 64l24 76l28 60l36 48
l44 44zM220 376.999l-52 -24l-36 -36l-56 -92l-20 -52l-4 -64l24 -48l44 -28l56 8l40 36l24 48l24 120l-8 32l20 36l-8 40c-14 9.33301 -30 17.333 -48 24z" />
    <glyph glyph-name="r" unicode="r" horiz-adv-x="392" 
d="M236 504l56 -4l52 -32l28 -44v-24l-28 12l-32 40l-44 24l-56 -12l-44 -28l-32 -40l-40 -100l-12 -60v-236l-24 8l-40 372l4 56l20 -4l8 -136l8 -40l28 112l56 88z" />
    <glyph glyph-name="s" unicode="s" horiz-adv-x="360" 
d="M148 460l72.001 -20.001l28 -64l-28 -24l-4 28c-8 20 -21.333 36 -40 48l-64 -16l-64 -68l16 -28l152 -24l60 -32l40 -52l20 -68l4 -52l-8 -24l-40 -52l-76 -12l-68 20l-60 32l-40 52v24l80 -68l64 -24l44 -8l28 8c18 8.66699 32.667 23.334 44 44.001v64l-32 72l-52 40
l-68 24l-80 4c-20.667 6 -39.334 18 -56.001 36c1.33301 23.333 9.33301 46 24 68l44 44z" />
    <glyph glyph-name="t" unicode="t" horiz-adv-x="352" 
d="M132 646l24 -4l-20 -340l160 16c14.667 -1.33301 24 -9.33301 28 -24l-192 -24l4 -132l12 -68l20 -60l36 -40l68 -12l56 28l4 -32l-28 -16l-36 -8h-40l-56 24l-32 48l-20 60l-16 144v60h-80l-4 20l12 12h76z" />
    <glyph glyph-name="u" unicode="u" horiz-adv-x="476" 
d="M304 396l23.999 -3.99902l-28 -196l16 -64l36 -48l48 -16l8 8l48 8l-4 -20l-56 -24l-64 24l-40 40l-8 28l-48 -80l-44 -40l-68 -12l-52 32l-28 52l-24 64v80l8 76c2.66699 20 12 38.667 28 56l12 -8l-12 -56l-8 -140l24 -68l40 -48l20 -12l40 8l44 36l32 52l20 60l16 148
c4.66699 19.333 11.334 40.666 20.001 63.999z" />
    <glyph glyph-name="v" unicode="v" horiz-adv-x="340" 
d="M20 448l40 -32l72 -268l32 -84l52 172l64 140c8 13.333 21.333 21.333 40 24l-144 -392l-24 -8c-86 280 -130 429.333 -132 448z" />
    <glyph glyph-name="w" unicode="w" horiz-adv-x="550" 
d="M463 325c21.333 -8 36.667 -23.333 46 -46l21 -67l-15 -73l-37 -51l-56 -31l-67 -21l-62 26l-51 67l-62 -77l-52 -42l-67 -10l-41 46v67l57 140l36 10l5 -26l-62 -129v-46l16 -26l61 21l78 98l25 62c17.333 -10.667 29.333 -28 36 -52l26 -62l57 -31l67 21l41 41l31 62
c-18.667 62.667 -29 105.667 -31 129z" />
    <glyph glyph-name="x" unicode="x" horiz-adv-x="284" 
d="M240 324l24 -4l-8 -28l-40 -72l-68 -88l80 -112l-4 -20l-28 8l-72 100l-88 -84l-16 4l12 28l60 60l20 32l-36 80l-36 16l16 44l32 -24l44 -96l20 12z" />
    <glyph glyph-name="y" unicode="y" horiz-adv-x="380" 
d="M24 379l24 -4l20 -180l32 -120l28 -44l44 32l40 108l8 68l-4 132l12 4c14 -10.667 23.333 -26.667 28 -48l104 -571v-104l-32 -84l-28 -12l-32 4l-48 28l-104 120l-16 60l8 68l28 48l40 36l40 20l4 -16l-40 -36l-32 -44l-20 -88l12 -28l64 -84l40 -36l48 -24l32 40
l12 124l-88 455l-8 -52l-44 -108l-56 -43l-40 11l-28 48l-16 60l-32 192l-4 56z" />
    <glyph glyph-name="z" unicode="z" horiz-adv-x="480" 
d="M20 490l223.999 -7l187 -36l29 -58l-65 -79l-43 -29l79 -7l-21 -43h-116l-144 -80l-51 -57l58 -44l296 8l7 -29l-94 -22l-216 -7l-87 29l-21 21l14 65l43 65l72 43c-27.333 4 -48.666 18.667 -63.999 44l187 36l65 50l22 58l-195 29h-116c-30 1.33301 -46.667 18 -50 50z
" />
    <glyph glyph-name="braceleft" unicode="{" horiz-adv-x="460" 
d="M236 895h56l24 -36l-20 -4l-48 12l-160 -72l-32 -36l16 -40l44 -24l104 -40l80 -64l16 -52l-20 -52l-92 -52l12 -20l40 -32c10 -16 15.333 -34.667 16 -56l-16 -56l-92 -196l-12 -56l20 -52l36 -32l48 -24l180 -32l4 -20l-44 -4l-124 20l-52 20l-44 28l-32 36l-20 52
l8 64l20 52l28 40l44 100l16 56l-12 48l-44 24l-60 12c6 16 18 28 36 36l92 52l32 36l-16 48l-36 32l-192 96l-20 52l32 40l40 32z" />
    <glyph glyph-name="bar" unicode="|" horiz-adv-x="752" 
d="M309 748l17 -40l-67 -162l-105 -110l5 -52l84 40l55 81l-5 35l94 -6l89 17l-61 -156l56 23l39 99c20 -2 40.333 -15.667 61 -41l55 81l56 17l-17 -46c-18 -26.667 -42 -47.667 -72 -63l22 -53l117 24l-39 -24l-89 -17l-78 93l-44 -81l-45 -35l-39 23l50 133l-78 -11
l-5 -99l-89 -52l-28 41l-100 -47l-11 52l-61 -23l11 29c26.667 13.333 49 36.666 67 69.999c8.66699 32.667 23.334 65.334 44.001 98.001l50 87c15.333 22 35.666 47 60.999 75zM298 713l-111 -173l-11 -58l83 104l28 64zM660 563c-24 -17.333 -39 -40.667 -45 -70
c17.333 20.667 32.333 44 45 70zM326 498.999l-61.001 -110l5 -5l78 46c-3.33301 23.333 -10.666 46.333 -21.999 69zM598.999 390.999l24 -28l-24 -10l-23 5c6 10.667 13.667 21.667 23 33zM136.999 342.999l67 -17l-23 -64l-55 -58l-89 46l-17 29l22 18h61z
M314.999 336.999l33 -6l-16 -69l100 58l-89 -179l50 63l61 58l94 17l78 41l-44 -75l-17 -64l22 -12l67 47l-28 -47l-66 -17l-12 23l6 87h-56l12 -46l-45 -75l-44 -35l-17 23l5 58l-77 -87l-17 46l61 104l-44 -34l-39 -47l-17 18l39 75l17 58l-73 -81l-44 -70l-45 -34z
M147.999 325.999c-12 -31.333 -30.667 -48.667 -56 -52l-27 11l-12 -11l23 -24l44 -17l39 35l28 52zM470.999 261.998l-39 -69l-11 -64l66 64c-0.666992 24 -6 47 -16 69z" />
    <glyph glyph-name="braceright" unicode="}" horiz-adv-x="348" 
d="M172 899h68l56 -12l24 -40l4 -44l-28 -60l-68 -64l-180 -108l24 -16l84 -16l-8 -24l-32 -36l12 -36l36 -32l40 -24l68 -68l44 -88l12 -100l-12 -72l-40 -92l-28 -40l-72 -60l-48 -12l28 40l76 60l24 40l36 96l8 56l-8 60l-16 48l-24 44l-64 64l-44 24l-36 32l-28 36
l16 52l-16 16l-48 20l-12 12l8 36l76 56l44 20l80 52l36 32l24 40l8 40l-4 16l-40 24h-64l-52 -12l-36 -16l-12 8l36 32z" />
    <glyph glyph-name="asciitilde" unicode="~" horiz-adv-x="368" 
d="M320 752l24 -4l4 -56l-24 -64c-12 -15.333 -28 -27.333 -48 -36l-72 -12l-120 84l-20 -28l-16 -60l-24 4l-4 36l40 64l40 12l24 -12l40 -44l56 -28l64 20l32 52z" />
    <glyph glyph-name="exclamdown" unicode="&#xa1;" 
 />
    <glyph glyph-name="cent" unicode="&#xa2;" horiz-adv-x="284" 
d="M208 834c14.667 -4.66699 24 -15.333 28 -32l-24 -32l-12 -80l4 -12l32 -24l8 -32l-12 -8l-28 28l-16 -28l-16 -176l88 24l4 -20l-40 -24l-40 -12l-12 -44l-24 -12l-4 56l-60 12l-32 24l-24 32l-8 48l12 44l48 64l68 44l24 28l16 96zM156 646.001l-51.999 -32l-36 -48
l-20 -64l32 -48l64 -20l20 204c-0.666992 3.33301 -3.33398 6 -8.00098 8z" />
    <glyph glyph-name="sterling" unicode="&#xa3;" horiz-adv-x="496" 
d="M284 840l52 -10l36 -32l20 -47l12 -63v-79l-12 -58c-5.33301 -19.333 -16 -29.666 -32 -30.999l16 121l-4 68l-16 58l-44 36l-32 -10l-36 -26l-24 -48l-28 -115l-4 -74l8 -110l120 21c16 -0.666992 25.333 -11 28 -31l-108 -16l-32 -21l28 -189l136 -47l108 -16
c-8.66699 -16.667 -22 -25.334 -40 -26.001h-60l-96 26l-40 21l-28 -26l-16 -58l-72 -58l-56 5l-48 42l28 90l64 73l52 5l28 -10l-16 157l-44 16l-20 42l48 -5l4 199l12 63l36 105zM124 179l-63.999 -84l-8 -32l16 -16l40 -10l52 31l32 95
c-26.667 8 -49.334 13.333 -68.001 16z" />
    <glyph glyph-name="yen" unicode="&#xa5;" 
 />
    <glyph glyph-name="brokenbar" unicode="&#xa6;" 
 />
    <glyph glyph-name="section" unicode="&#xa7;" horiz-adv-x="380" 
d="M132 820l52 -5l36 -20l24 -40c0 -17.333 -8 -27 -24 -29l-20 44l-40 15l-80 -35l-32 -49l8 -35l28 -30l152 -79l68 -50l28 -35l20 -40l8 -59l-28 -35l-92 -15l60 -60l40 -84l4 -65l-16 -44l-28 -35l-80 -35l-52 5l-44 15l-52 30l8 30l40 -20l88 -25l44 10l36 25l24 34
l4 40l-20 65l-52 69l-32 25l-112 60l-64 54l-12 55l20 45l32 30l36 20l-12 19l-64 55l-16 50l16 49l24 35zM160 542l-48 -15l-36 -25l-24 -35l20 -40l60 -44l8 10l84 -25l52 -5l48 10l8 15l-8 29l-24 40l-60 60z" />
    <glyph glyph-name="dieresis" unicode="&#xa8;" horiz-adv-x="252" 
d="M200 852l32 -4l-12 -44l-32 8c2 12.667 6 26 12 40zM36 844l36.001 -12l-16 -32l-36 8c3.33301 12.667 8.66602 24.667 15.999 36z" />
    <glyph glyph-name="copyright" unicode="&#xa9;" horiz-adv-x="524" 
d="M227 868l65 -0.000976562l56 -10l40 -25l30 -29l46 -84l40 -148v-64l-10 -55l-25 -34l-76 -54l-101 -25h-121l-50 15l-71 59l-20 39l-10 55l5 59l40 148l51 79l30 30c22.667 14.667 49.667 29.334 81 44.001zM242 832.999l-76 -39l-45 -64l-35 -74l-26 -84l-5 -79l10 -15
c6 -24.667 19.667 -47.667 41 -69l75 -34l81 -5l106 29l70 40l31 79v59l-36 118l-35 79l-60 50c-29.333 5.33301 -61.333 8.33301 -96 9zM267 704.999l50 -25.001v-29l-30 10l-40 -15l-30 -44l-10 -35l10 -15l55 -34l40 10c8 16.667 21.667 26.334 41 29.001v-39l-61 -35
l-65 10l-41 35l-15 54l20 54l36 40z" />
    <glyph glyph-name="ordfeminine" unicode="&#xaa;" 
 />
    <glyph glyph-name="guillemotleft" unicode="&#xab;" 
 />
    <glyph glyph-name="logicalnot" unicode="&#xac;" 
 />
    <glyph glyph-name="registered" unicode="&#xae;" horiz-adv-x="520" 
d="M192 840l120 -4l48 -12l116 -68l24 -100l-4 -116l-44 -80l-100 -84l-88 -36h-60l-52 12l-60 60l-20 40l-48 136l-4 56l12 52l20 40l28 32l72 52zM204 812l-40 -16l-64 -48l-44 -64l-8 -44l4 -52l60 -156l56 -56l44 -8l48 4l44 12l36 20l88 72l40 68l4 104l-24 84l-64 48
l-76 28zM220 748l92 -4.00195c21.333 -9.33301 36 -26.666 44 -51.999l-40 -60l-56 -36c-20 -3.33301 -36 -12.666 -48 -27.999l144 -48c16.667 -6 28.667 -18 36 -36l-20 -4l-176 60l4 -80l-24 -4l-8 216l-20 56c20 7.33301 44 14 72 20zM232 719.998
c-16 -2.66699 -28 -12 -36 -28v-88l108 56l20 40l-36 16z" />
    <glyph glyph-name="overscore" unicode="&#xaf;" horiz-adv-x="596" 
d="M136 856l372 -24l64 -12l4 -20l-416 28l-124 -16l-12 4l-4 20c53.333 7.33301 92 14 116 20z" />
    <glyph glyph-name="degree" unicode="&#xb0;" horiz-adv-x="132" 
d="M44 908c21.333 -0.666992 42.667 -8.66699 64 -24l4 -28l-28 -24l-40 -4l-20 20l-4 36zM72.001 876l-24 -4l16 -16l20 12z" />
    <glyph glyph-name="plusminus" unicode="&#xb1;" horiz-adv-x="364" 
d="M140 724l24 -4l8 -124l144 8c14.667 -1.33301 24 -9.33301 28 -24l-172 -12v-112l-24 12l-4 96l-48 -8l-72 4l-4 20l32 8l12 -4l72 8v120zM160 392h72l60 -8l12 -24l-24 -4l-72 8l-128 -12l-12 24l32 8z" />
    <glyph glyph-name="twosuperior" unicode="&#xb2;" 
 />
    <glyph glyph-name="threesuperior" unicode="&#xb3;" 
 />
    <glyph glyph-name="acute" unicode="&#xb4;" horiz-adv-x="248" 
d="M204 936l24 -4l-28 -36l-156 -96l-24 4l28 32z" />
    <glyph glyph-name="mu1" unicode="&#xb5;" 
 />
    <glyph glyph-name="paragraph" unicode="&#xb6;" horiz-adv-x="336" 
d="M204 804l68.001 -11.001c17.333 -2.66699 28 -16.667 32 -42l-8 -346l20 -192v-85l-20 -6l-28 325h-44v-447h-20l-8 410c-2.66699 24 -13.334 40 -32.001 48l-104 58l-32 54l-8 37l8 43l32 58l44 37l52 27c17.333 2.66699 33.333 13.334 48 32.001zM232.001 755.999
l-8 -80l4 -191l40 5l8 245c-11.333 12.667 -26 19.667 -44 21zM192.001 744.999l-63.999 -31.999c-18.667 -7.33301 -36 -23 -52 -47c-14 -18.667 -22 -43.667 -24 -75l40 -59l64 -31l40 -11l4 239c-0.666992 7.33301 -3.33398 12.666 -8.00098 15.999z" />
    <glyph glyph-name="periodcentered" unicode="&#xb7;" 
 />
    <glyph glyph-name="periodcentered" unicode="&#x2219;" 
 />
    <glyph glyph-name="cedilla" unicode="&#xb8;" 
 />
    <glyph glyph-name="onesuperior" unicode="&#xb9;" 
 />
    <glyph glyph-name="ordmasculine" unicode="&#xba;" 
 />
    <glyph glyph-name="guillemotright" unicode="&#xbb;" 
 />
    <glyph glyph-name="onequarter" unicode="&#xbc;" 
 />
    <glyph glyph-name="onehalf" unicode="&#xbd;" 
 />
    <glyph glyph-name="threequarters" unicode="&#xbe;" 
 />
    <glyph glyph-name="questiondown" unicode="&#xbf;" 
 />
    <glyph glyph-name="Agrave" unicode="&#xc0;" 
 />
    <glyph glyph-name="Aacute" unicode="&#xc1;" 
 />
    <glyph glyph-name="Acircumflex" unicode="&#xc2;" 
 />
    <glyph glyph-name="Atilde" unicode="&#xc3;" 
 />
    <glyph glyph-name="Adieresis" unicode="&#xc4;" 
 />
    <glyph glyph-name="Aring" unicode="&#xc5;" 
 />
    <glyph glyph-name="AE" unicode="&#xc6;" 
 />
    <glyph glyph-name="Ccedilla" unicode="&#xc7;" 
 />
    <glyph glyph-name="Egrave" unicode="&#xc8;" 
 />
    <glyph glyph-name="Eacute" unicode="&#xc9;" 
 />
    <glyph glyph-name="Ecircumflex" unicode="&#xca;" 
 />
    <glyph glyph-name="Edieresis" unicode="&#xcb;" 
 />
    <glyph glyph-name="Igrave" unicode="&#xcc;" 
 />
    <glyph glyph-name="Iacute" unicode="&#xcd;" 
 />
    <glyph glyph-name="Icircumflex" unicode="&#xce;" 
 />
    <glyph glyph-name="Idieresis" unicode="&#xcf;" 
 />
    <glyph glyph-name="Eth" unicode="&#xd0;" 
 />
    <glyph glyph-name="Ntilde" unicode="&#xd1;" 
 />
    <glyph glyph-name="Ograve" unicode="&#xd2;" 
 />
    <glyph glyph-name="Oacute" unicode="&#xd3;" 
 />
    <glyph glyph-name="Ocircumflex" unicode="&#xd4;" 
 />
    <glyph glyph-name="Otilde" unicode="&#xd5;" 
 />
    <glyph glyph-name="Odieresis" unicode="&#xd6;" 
 />
    <glyph glyph-name="multiply" unicode="&#xd7;" horiz-adv-x="294" 
d="M90 918l40 -87l39 56l5 -31l-20 -50l105 31l15 -12l-120 -44l60 -87l-15 -25l-45 81c-18 -5.33301 -31 -22 -39 -50c-6.66699 -29.333 -20 -50 -40 -62l35 87l10 50l-90 -13l-10 19l105 13z" />
    <glyph glyph-name="Oslash" unicode="&#xd8;" 
 />
    <glyph glyph-name="Ugrave" unicode="&#xd9;" 
 />
    <glyph glyph-name="Uacute" unicode="&#xda;" 
 />
    <glyph glyph-name="Ucircumflex" unicode="&#xdb;" 
 />
    <glyph glyph-name="Udieresis" unicode="&#xdc;" 
 />
    <glyph glyph-name="Yacute" unicode="&#xdd;" 
 />
    <glyph glyph-name="Thorn" unicode="&#xde;" 
 />
    <glyph glyph-name="germandbls" unicode="&#xdf;" 
 />
    <glyph glyph-name="agrave" unicode="&#xe0;" 
 />
    <glyph glyph-name="aacute" unicode="&#xe1;" 
 />
    <glyph glyph-name="acircumflex" unicode="&#xe2;" 
 />
    <glyph glyph-name="atilde" unicode="&#xe3;" 
 />
    <glyph glyph-name="adieresis" unicode="&#xe4;" 
 />
    <glyph glyph-name="aring" unicode="&#xe5;" 
 />
    <glyph glyph-name="ae" unicode="&#xe6;" 
 />
    <glyph glyph-name="ccedilla" unicode="&#xe7;" 
 />
    <glyph glyph-name="egrave" unicode="&#xe8;" 
 />
    <glyph glyph-name="eacute" unicode="&#xe9;" 
 />
    <glyph glyph-name="ecircumflex" unicode="&#xea;" 
 />
    <glyph glyph-name="edieresis" unicode="&#xeb;" 
 />
    <glyph glyph-name="igrave" unicode="&#xec;" 
 />
    <glyph glyph-name="iacute" unicode="&#xed;" 
 />
    <glyph glyph-name="icircumflex" unicode="&#xee;" 
 />
    <glyph glyph-name="idieresis" unicode="&#xef;" 
 />
    <glyph glyph-name="eth" unicode="&#xf0;" 
 />
    <glyph glyph-name="ntilde" unicode="&#xf1;" 
 />
    <glyph glyph-name="ograve" unicode="&#xf2;" 
 />
    <glyph glyph-name="oacute" unicode="&#xf3;" 
 />
    <glyph glyph-name="ocircumflex" unicode="&#xf4;" 
 />
    <glyph glyph-name="otilde" unicode="&#xf5;" 
 />
    <glyph glyph-name="odieresis" unicode="&#xf6;" 
 />
    <glyph glyph-name="divide" unicode="&#xf7;" horiz-adv-x="396" 
d="M180 572l24 -4l-4 -24l-24 4zM344 480c14.667 -2.66699 25.333 -12 32 -28l-24 -8l-332 8l4 24zM203.999 380l24 -4l-4 -24l-24 4z" />
    <glyph glyph-name="oslash" unicode="&#xf8;" 
 />
    <glyph glyph-name="ugrave" unicode="&#xf9;" 
 />
    <glyph glyph-name="uacute" unicode="&#xfa;" 
 />
    <glyph glyph-name="ucircumflex" unicode="&#xfb;" 
 />
    <glyph glyph-name="udieresis" unicode="&#xfc;" 
 />
    <glyph glyph-name="yacute" unicode="&#xfd;" 
 />
    <glyph glyph-name="thorn" unicode="&#xfe;" 
 />
    <glyph glyph-name="ydieresis" unicode="&#xff;" 
 />
    <glyph glyph-name="Amacron" unicode="&#x100;" 
 />
    <glyph glyph-name="amacron" unicode="&#x101;" 
 />
    <glyph glyph-name="Abreve" unicode="&#x102;" 
 />
    <glyph glyph-name="abreve" unicode="&#x103;" 
 />
    <glyph glyph-name="Aogonek" unicode="&#x104;" 
 />
    <glyph glyph-name="aogonek" unicode="&#x105;" 
 />
    <glyph glyph-name="Cacute" unicode="&#x106;" 
 />
    <glyph glyph-name="cacute" unicode="&#x107;" 
 />
    <glyph glyph-name="Ccircumflex" unicode="&#x108;" 
 />
    <glyph glyph-name="ccircumflex" unicode="&#x109;" 
 />
    <glyph glyph-name="Cdot" unicode="&#x10a;" 
 />
    <glyph glyph-name="cdot" unicode="&#x10b;" 
 />
    <glyph glyph-name="Ccaron" unicode="&#x10c;" 
 />
    <glyph glyph-name="ccaron" unicode="&#x10d;" 
 />
    <glyph glyph-name="Dcaron" unicode="&#x10e;" 
 />
    <glyph glyph-name="dcaron" unicode="&#x10f;" 
 />
    <glyph glyph-name="Dslash" unicode="&#x110;" 
 />
    <glyph glyph-name="dmacron" unicode="&#x111;" 
 />
    <glyph glyph-name="Emacron" unicode="&#x112;" 
 />
    <glyph glyph-name="emacron" unicode="&#x113;" 
 />
    <glyph glyph-name="Ebreve" unicode="&#x114;" 
 />
    <glyph glyph-name="ebreve" unicode="&#x115;" 
 />
    <glyph glyph-name="Edot" unicode="&#x116;" 
 />
    <glyph glyph-name="edot" unicode="&#x117;" 
 />
    <glyph glyph-name="Eogonek" unicode="&#x118;" 
 />
    <glyph glyph-name="eogonek" unicode="&#x119;" 
 />
    <glyph glyph-name="Ecaron" unicode="&#x11a;" 
 />
    <glyph glyph-name="ecaron" unicode="&#x11b;" 
 />
    <glyph glyph-name="Gcircumflex" unicode="&#x11c;" 
 />
    <glyph glyph-name="gcircumflex" unicode="&#x11d;" 
 />
    <glyph glyph-name="Gbreve" unicode="&#x11e;" 
 />
    <glyph glyph-name="gbreve" unicode="&#x11f;" 
 />
    <glyph glyph-name="Gdot" unicode="&#x120;" 
 />
    <glyph glyph-name="gdot" unicode="&#x121;" 
 />
    <glyph glyph-name="Gcedilla" unicode="&#x122;" 
 />
    <glyph glyph-name="gcedilla" unicode="&#x123;" 
 />
    <glyph glyph-name="Hcircumflex" unicode="&#x124;" 
 />
    <glyph glyph-name="hcircumflex" unicode="&#x125;" 
 />
    <glyph glyph-name="Hbar" unicode="&#x126;" 
 />
    <glyph glyph-name="hbar" unicode="&#x127;" 
 />
    <glyph glyph-name="Itilde" unicode="&#x128;" 
 />
    <glyph glyph-name="itilde" unicode="&#x129;" 
 />
    <glyph glyph-name="Imacron" unicode="&#x12a;" 
 />
    <glyph glyph-name="imacron" unicode="&#x12b;" 
 />
    <glyph glyph-name="Ibreve" unicode="&#x12c;" 
 />
    <glyph glyph-name="ibreve" unicode="&#x12d;" 
 />
    <glyph glyph-name="Iogonek" unicode="&#x12e;" 
 />
    <glyph glyph-name="iogonek" unicode="&#x12f;" 
 />
    <glyph glyph-name="Idotaccent" unicode="&#x130;" 
 />
    <glyph glyph-name="dotlessi" unicode="&#x131;" 
 />
    <glyph glyph-name="IJ" unicode="&#x132;" 
 />
    <glyph glyph-name="ij" unicode="&#x133;" 
 />
    <glyph glyph-name="Jcircumflex" unicode="&#x134;" 
 />
    <glyph glyph-name="jcircumflex" unicode="&#x135;" 
 />
    <glyph glyph-name="Kcedilla" unicode="&#x136;" 
 />
    <glyph glyph-name="kcedilla" unicode="&#x137;" 
 />
    <glyph glyph-name="kgreenlandic" unicode="&#x138;" 
 />
    <glyph glyph-name="Lacute" unicode="&#x139;" 
 />
    <glyph glyph-name="lacute" unicode="&#x13a;" 
 />
    <glyph glyph-name="Lcedilla" unicode="&#x13b;" 
 />
    <glyph glyph-name="lcedilla" unicode="&#x13c;" 
 />
    <glyph glyph-name="Lcaron" unicode="&#x13d;" 
 />
    <glyph glyph-name="lcaron" unicode="&#x13e;" 
 />
    <glyph glyph-name="Ldot" unicode="&#x13f;" 
 />
    <glyph glyph-name="ldot" unicode="&#x140;" 
 />
    <glyph glyph-name="Lslash" unicode="&#x141;" 
 />
    <glyph glyph-name="lslash" unicode="&#x142;" 
 />
    <glyph glyph-name="Nacute" unicode="&#x143;" 
 />
    <glyph glyph-name="nacute" unicode="&#x144;" 
 />
    <glyph glyph-name="Ncedilla" unicode="&#x145;" 
 />
    <glyph glyph-name="ncedilla" unicode="&#x146;" 
 />
    <glyph glyph-name="Ncaron" unicode="&#x147;" 
 />
    <glyph glyph-name="ncaron" unicode="&#x148;" 
 />
    <glyph glyph-name="napostrophe" unicode="&#x149;" 
 />
    <glyph glyph-name="Eng" unicode="&#x14a;" 
 />
    <glyph glyph-name="eng" unicode="&#x14b;" 
 />
    <glyph glyph-name="Omacron" unicode="&#x14c;" 
 />
    <glyph glyph-name="omacron" unicode="&#x14d;" 
 />
    <glyph glyph-name="Obreve" unicode="&#x14e;" 
 />
    <glyph glyph-name="obreve" unicode="&#x14f;" 
 />
    <glyph glyph-name="Odblacute" unicode="&#x150;" 
 />
    <glyph glyph-name="odblacute" unicode="&#x151;" 
 />
    <glyph glyph-name="OE" unicode="&#x152;" 
 />
    <glyph glyph-name="oe" unicode="&#x153;" 
 />
    <glyph glyph-name="Racute" unicode="&#x154;" 
 />
    <glyph glyph-name="racute" unicode="&#x155;" 
 />
    <glyph glyph-name="Rcedilla" unicode="&#x156;" 
 />
    <glyph glyph-name="rcedilla" unicode="&#x157;" 
 />
    <glyph glyph-name="Rcaron" unicode="&#x158;" 
 />
    <glyph glyph-name="rcaron" unicode="&#x159;" 
 />
    <glyph glyph-name="Sacute" unicode="&#x15a;" 
 />
    <glyph glyph-name="sacute" unicode="&#x15b;" 
 />
    <glyph glyph-name="Scircumflex" unicode="&#x15c;" 
 />
    <glyph glyph-name="scircumflex" unicode="&#x15d;" 
 />
    <glyph glyph-name="Scedilla" unicode="&#x15e;" 
 />
    <glyph glyph-name="scedilla" unicode="&#x15f;" 
 />
    <glyph glyph-name="Scaron" unicode="&#x160;" 
 />
    <glyph glyph-name="scaron" unicode="&#x161;" 
 />
    <glyph glyph-name="Tcedilla" unicode="&#x162;" 
 />
    <glyph glyph-name="tcedilla" unicode="&#x163;" 
 />
    <glyph glyph-name="Tcaron" unicode="&#x164;" 
 />
    <glyph glyph-name="tcaron" unicode="&#x165;" 
 />
    <glyph glyph-name="Tbar" unicode="&#x166;" 
 />
    <glyph glyph-name="tbar" unicode="&#x167;" 
 />
    <glyph glyph-name="Utilde" unicode="&#x168;" 
 />
    <glyph glyph-name="utilde" unicode="&#x169;" 
 />
    <glyph glyph-name="Umacron" unicode="&#x16a;" 
 />
    <glyph glyph-name="umacron" unicode="&#x16b;" 
 />
    <glyph glyph-name="Ubreve" unicode="&#x16c;" 
 />
    <glyph glyph-name="ubreve" unicode="&#x16d;" 
 />
    <glyph glyph-name="Uring" unicode="&#x16e;" 
 />
    <glyph glyph-name="uring" unicode="&#x16f;" 
 />
    <glyph glyph-name="Udblacute" unicode="&#x170;" 
 />
    <glyph glyph-name="udblacute" unicode="&#x171;" 
 />
    <glyph glyph-name="Uogonek" unicode="&#x172;" 
 />
    <glyph glyph-name="uogonek" unicode="&#x173;" 
 />
    <glyph glyph-name="Wcircumflex" unicode="&#x174;" 
 />
    <glyph glyph-name="wcircumflex" unicode="&#x175;" 
 />
    <glyph glyph-name="Ycircumflex" unicode="&#x176;" 
 />
    <glyph glyph-name="ycircumflex" unicode="&#x177;" 
 />
    <glyph glyph-name="Ydieresis" unicode="&#x178;" 
 />
    <glyph glyph-name="Zacute" unicode="&#x179;" 
 />
    <glyph glyph-name="zacute" unicode="&#x17a;" 
 />
    <glyph glyph-name="Zdot" unicode="&#x17b;" 
 />
    <glyph glyph-name="zdot" unicode="&#x17c;" 
 />
    <glyph glyph-name="Zcaron" unicode="&#x17d;" 
 />
    <glyph glyph-name="zcaron" unicode="&#x17e;" 
 />
    <glyph glyph-name="longs" unicode="&#x17f;" 
 />
    <glyph glyph-name="florin" unicode="&#x192;" 
 />
    <glyph glyph-name="Aringacute" unicode="&#x1fa;" 
 />
    <glyph glyph-name="aringacute" unicode="&#x1fb;" 
 />
    <glyph glyph-name="AEacute" unicode="&#x1fc;" 
 />
    <glyph glyph-name="aeacute" unicode="&#x1fd;" 
 />
    <glyph glyph-name="Oslashacute" unicode="&#x1fe;" 
 />
    <glyph glyph-name="oslashacute" unicode="&#x1ff;" 
 />
    <glyph glyph-name="circumflex" unicode="&#x2c6;" 
 />
    <glyph glyph-name="caron" unicode="&#x2c7;" 
 />
    <glyph glyph-name="macron" unicode="&#x2c9;" 
 />
    <glyph glyph-name="breve" unicode="&#x2d8;" 
 />
    <glyph glyph-name="dotaccent" unicode="&#x2d9;" 
 />
    <glyph glyph-name="ring" unicode="&#x2da;" 
 />
    <glyph glyph-name="ogonek" unicode="&#x2db;" 
 />
    <glyph glyph-name="tilde" unicode="&#x2dc;" 
 />
    <glyph glyph-name="hungarumlaut" unicode="&#x2dd;" 
 />
    <glyph glyph-name="tonos" unicode="&#x384;" 
 />
    <glyph glyph-name="dieresistonos" unicode="&#x385;" 
 />
    <glyph glyph-name="Alphatonos" unicode="&#x386;" 
 />
    <glyph glyph-name="anoteleia" unicode="&#x387;" 
 />
    <glyph glyph-name="Epsilontonos" unicode="&#x388;" 
 />
    <glyph glyph-name="Etatonos" unicode="&#x389;" 
 />
    <glyph glyph-name="Iotatonos" unicode="&#x38a;" 
 />
    <glyph glyph-name="Omicrontonos" unicode="&#x38c;" 
 />
    <glyph glyph-name="Upsilontonos" unicode="&#x38e;" 
 />
    <glyph glyph-name="Omegatonos" unicode="&#x38f;" 
 />
    <glyph glyph-name="iotadieresistonos" unicode="&#x390;" 
 />
    <glyph glyph-name="Alpha" unicode="&#x391;" 
 />
    <glyph glyph-name="Beta" unicode="&#x392;" 
 />
    <glyph glyph-name="Gamma" unicode="&#x393;" 
 />
    <glyph glyph-name="Delta" unicode="&#x394;" 
 />
    <glyph glyph-name="Epsilon" unicode="&#x395;" 
 />
    <glyph glyph-name="Zeta" unicode="&#x396;" 
 />
    <glyph glyph-name="Eta" unicode="&#x397;" 
 />
    <glyph glyph-name="Theta" unicode="&#x398;" 
 />
    <glyph glyph-name="Iota" unicode="&#x399;" 
 />
    <glyph glyph-name="Kappa" unicode="&#x39a;" 
 />
    <glyph glyph-name="Lambda" unicode="&#x39b;" 
 />
    <glyph glyph-name="Mu" unicode="&#x39c;" 
 />
    <glyph glyph-name="Nu" unicode="&#x39d;" 
 />
    <glyph glyph-name="Xi" unicode="&#x39e;" 
 />
    <glyph glyph-name="Omicron" unicode="&#x39f;" 
 />
    <glyph glyph-name="Pi" unicode="&#x3a0;" 
 />
    <glyph glyph-name="Rho" unicode="&#x3a1;" 
 />
    <glyph glyph-name="Sigma" unicode="&#x3a3;" 
 />
    <glyph glyph-name="Tau" unicode="&#x3a4;" 
 />
    <glyph glyph-name="Upsilon" unicode="&#x3a5;" 
 />
    <glyph glyph-name="Phi" unicode="&#x3a6;" 
 />
    <glyph glyph-name="Chi" unicode="&#x3a7;" 
 />
    <glyph glyph-name="Psi" unicode="&#x3a8;" 
 />
    <glyph glyph-name="Omega" unicode="&#x3a9;" 
 />
    <glyph glyph-name="Iotadieresis" unicode="&#x3aa;" 
 />
    <glyph glyph-name="Upsilondieresis" unicode="&#x3ab;" 
 />
    <glyph glyph-name="alphatonos" unicode="&#x3ac;" 
 />
    <glyph glyph-name="epsilontonos" unicode="&#x3ad;" 
 />
    <glyph glyph-name="etatonos" unicode="&#x3ae;" 
 />
    <glyph glyph-name="iotatonos" unicode="&#x3af;" 
 />
    <glyph glyph-name="upsilondieresistonos" unicode="&#x3b0;" 
 />
    <glyph glyph-name="alpha" unicode="&#x3b1;" 
 />
    <glyph glyph-name="beta" unicode="&#x3b2;" 
 />
    <glyph glyph-name="gamma" unicode="&#x3b3;" 
 />
    <glyph glyph-name="delta" unicode="&#x3b4;" 
 />
    <glyph glyph-name="epsilon" unicode="&#x3b5;" 
 />
    <glyph glyph-name="zeta" unicode="&#x3b6;" 
 />
    <glyph glyph-name="eta" unicode="&#x3b7;" 
 />
    <glyph glyph-name="theta" unicode="&#x3b8;" 
 />
    <glyph glyph-name="iota" unicode="&#x3b9;" 
 />
    <glyph glyph-name="kappa" unicode="&#x3ba;" 
 />
    <glyph glyph-name="lambda" unicode="&#x3bb;" 
 />
    <glyph glyph-name="mu" unicode="&#x3bc;" 
 />
    <glyph glyph-name="nu" unicode="&#x3bd;" 
 />
    <glyph glyph-name="xi" unicode="&#x3be;" 
 />
    <glyph glyph-name="omicron" unicode="&#x3bf;" 
 />
    <glyph glyph-name="pi" unicode="&#x3c0;" horiz-adv-x="496" 
d="M472 408l4 -24l-176 -24l-8 -68l4 -80l52 -200l-44 44l-36 136l-4 84l8 76l-96 -16l16 -32v-88l-20 -152l-28 -56l-24 -8l36 104l12 224l-12 4l-128 -32l-8 8c13.333 16 32 26.667 56 32l284 60z" />
    <glyph glyph-name="rho" unicode="&#x3c1;" 
 />
    <glyph glyph-name="sigma1" unicode="&#x3c2;" 
 />
    <glyph glyph-name="sigma" unicode="&#x3c3;" 
 />
    <glyph glyph-name="tau" unicode="&#x3c4;" 
 />
    <glyph glyph-name="upsilon" unicode="&#x3c5;" 
 />
    <glyph glyph-name="phi" unicode="&#x3c6;" 
 />
    <glyph glyph-name="chi" unicode="&#x3c7;" 
 />
    <glyph glyph-name="psi" unicode="&#x3c8;" 
 />
    <glyph glyph-name="omega" unicode="&#x3c9;" 
 />
    <glyph glyph-name="iotadieresis" unicode="&#x3ca;" 
 />
    <glyph glyph-name="upsilondieresis" unicode="&#x3cb;" 
 />
    <glyph glyph-name="omicrontonos" unicode="&#x3cc;" 
 />
    <glyph glyph-name="upsilontonos" unicode="&#x3cd;" 
 />
    <glyph glyph-name="omegatonos" unicode="&#x3ce;" 
 />
    <glyph glyph-name="afii10023" unicode="&#x401;" 
 />
    <glyph glyph-name="afii10051" unicode="&#x402;" 
 />
    <glyph glyph-name="afii10052" unicode="&#x403;" 
 />
    <glyph glyph-name="afii10053" unicode="&#x404;" 
 />
    <glyph glyph-name="afii10054" unicode="&#x405;" 
 />
    <glyph glyph-name="afii10055" unicode="&#x406;" 
 />
    <glyph glyph-name="afii10056" unicode="&#x407;" 
 />
    <glyph glyph-name="afii10057" unicode="&#x408;" 
 />
    <glyph glyph-name="afii10058" unicode="&#x409;" 
 />
    <glyph glyph-name="afii10059" unicode="&#x40a;" 
 />
    <glyph glyph-name="afii10060" unicode="&#x40b;" 
 />
    <glyph glyph-name="afii10061" unicode="&#x40c;" 
 />
    <glyph glyph-name="afii10062" unicode="&#x40e;" 
 />
    <glyph glyph-name="afii10145" unicode="&#x40f;" 
 />
    <glyph glyph-name="afii10017" unicode="&#x410;" 
 />
    <glyph glyph-name="afii10018" unicode="&#x411;" 
 />
    <glyph glyph-name="afii10019" unicode="&#x412;" 
 />
    <glyph glyph-name="afii10020" unicode="&#x413;" 
 />
    <glyph glyph-name="afii10021" unicode="&#x414;" 
 />
    <glyph glyph-name="afii10022" unicode="&#x415;" 
 />
    <glyph glyph-name="afii10024" unicode="&#x416;" 
 />
    <glyph glyph-name="afii10025" unicode="&#x417;" 
 />
    <glyph glyph-name="afii10026" unicode="&#x418;" 
 />
    <glyph glyph-name="afii10027" unicode="&#x419;" 
 />
    <glyph glyph-name="afii10028" unicode="&#x41a;" 
 />
    <glyph glyph-name="afii10029" unicode="&#x41b;" 
 />
    <glyph glyph-name="afii10030" unicode="&#x41c;" 
 />
    <glyph glyph-name="afii10031" unicode="&#x41d;" 
 />
    <glyph glyph-name="afii10032" unicode="&#x41e;" 
 />
    <glyph glyph-name="afii10033" unicode="&#x41f;" 
 />
    <glyph glyph-name="afii10034" unicode="&#x420;" 
 />
    <glyph glyph-name="afii10035" unicode="&#x421;" 
 />
    <glyph glyph-name="afii10036" unicode="&#x422;" 
 />
    <glyph glyph-name="afii10037" unicode="&#x423;" 
 />
    <glyph glyph-name="afii10038" unicode="&#x424;" 
 />
    <glyph glyph-name="afii10039" unicode="&#x425;" 
 />
    <glyph glyph-name="afii10040" unicode="&#x426;" 
 />
    <glyph glyph-name="afii10041" unicode="&#x427;" 
 />
    <glyph glyph-name="afii10042" unicode="&#x428;" 
 />
    <glyph glyph-name="afii10043" unicode="&#x429;" 
 />
    <glyph glyph-name="afii10044" unicode="&#x42a;" 
 />
    <glyph glyph-name="afii10045" unicode="&#x42b;" 
 />
    <glyph glyph-name="afii10046" unicode="&#x42c;" 
 />
    <glyph glyph-name="afii10047" unicode="&#x42d;" 
 />
    <glyph glyph-name="afii10048" unicode="&#x42e;" 
 />
    <glyph glyph-name="afii10049" unicode="&#x42f;" 
 />
    <glyph glyph-name="afii10065" unicode="&#x430;" 
 />
    <glyph glyph-name="afii10066" unicode="&#x431;" 
 />
    <glyph glyph-name="afii10067" unicode="&#x432;" 
 />
    <glyph glyph-name="afii10068" unicode="&#x433;" 
 />
    <glyph glyph-name="afii10069" unicode="&#x434;" 
 />
    <glyph glyph-name="afii10070" unicode="&#x435;" 
 />
    <glyph glyph-name="afii10072" unicode="&#x436;" 
 />
    <glyph glyph-name="afii10073" unicode="&#x437;" 
 />
    <glyph glyph-name="afii10074" unicode="&#x438;" 
 />
    <glyph glyph-name="afii10075" unicode="&#x439;" 
 />
    <glyph glyph-name="afii10076" unicode="&#x43a;" 
 />
    <glyph glyph-name="afii10077" unicode="&#x43b;" 
 />
    <glyph glyph-name="afii10078" unicode="&#x43c;" 
 />
    <glyph glyph-name="afii10079" unicode="&#x43d;" 
 />
    <glyph glyph-name="afii10080" unicode="&#x43e;" 
 />
    <glyph glyph-name="afii10081" unicode="&#x43f;" 
 />
    <glyph glyph-name="afii10082" unicode="&#x440;" 
 />
    <glyph glyph-name="afii10083" unicode="&#x441;" 
 />
    <glyph glyph-name="afii10084" unicode="&#x442;" 
 />
    <glyph glyph-name="afii10085" unicode="&#x443;" 
 />
    <glyph glyph-name="afii10086" unicode="&#x444;" 
 />
    <glyph glyph-name="afii10087" unicode="&#x445;" 
 />
    <glyph glyph-name="afii10088" unicode="&#x446;" 
 />
    <glyph glyph-name="afii10089" unicode="&#x447;" 
 />
    <glyph glyph-name="afii10090" unicode="&#x448;" 
 />
    <glyph glyph-name="afii10091" unicode="&#x449;" 
 />
    <glyph glyph-name="afii10092" unicode="&#x44a;" 
 />
    <glyph glyph-name="afii10093" unicode="&#x44b;" 
 />
    <glyph glyph-name="afii10094" unicode="&#x44c;" 
 />
    <glyph glyph-name="afii10095" unicode="&#x44d;" 
 />
    <glyph glyph-name="afii10096" unicode="&#x44e;" 
 />
    <glyph glyph-name="afii10097" unicode="&#x44f;" 
 />
    <glyph glyph-name="afii10071" unicode="&#x451;" 
 />
    <glyph glyph-name="afii10099" unicode="&#x452;" 
 />
    <glyph glyph-name="afii10100" unicode="&#x453;" 
 />
    <glyph glyph-name="afii10101" unicode="&#x454;" 
 />
    <glyph glyph-name="afii10102" unicode="&#x455;" 
 />
    <glyph glyph-name="afii10103" unicode="&#x456;" 
 />
    <glyph glyph-name="afii10104" unicode="&#x457;" 
 />
    <glyph glyph-name="afii10105" unicode="&#x458;" 
 />
    <glyph glyph-name="afii10106" unicode="&#x459;" 
 />
    <glyph glyph-name="afii10107" unicode="&#x45a;" 
 />
    <glyph glyph-name="afii10108" unicode="&#x45b;" 
 />
    <glyph glyph-name="afii10109" unicode="&#x45c;" 
 />
    <glyph glyph-name="afii10110" unicode="&#x45e;" 
 />
    <glyph glyph-name="afii10193" unicode="&#x45f;" 
 />
    <glyph glyph-name="afii10050" unicode="&#x490;" 
 />
    <glyph glyph-name="afii10098" unicode="&#x491;" 
 />
    <glyph glyph-name="Wgrave" unicode="&#x1e80;" 
 />
    <glyph glyph-name="wgrave" unicode="&#x1e81;" 
 />
    <glyph glyph-name="Wacute" unicode="&#x1e82;" 
 />
    <glyph glyph-name="wacute" unicode="&#x1e83;" 
 />
    <glyph glyph-name="Wdieresis" unicode="&#x1e84;" 
 />
    <glyph glyph-name="wdieresis" unicode="&#x1e85;" 
 />
    <glyph glyph-name="Ygrave" unicode="&#x1ef2;" 
 />
    <glyph glyph-name="ygrave" unicode="&#x1ef3;" 
 />
    <glyph glyph-name="endash" unicode="&#x2013;" 
 />
    <glyph glyph-name="emdash" unicode="&#x2014;" 
 />
    <glyph glyph-name="afii00208" unicode="&#x2015;" 
 />
    <glyph glyph-name="underscoredbl" unicode="&#x2017;" horiz-adv-x="596" 
d="M136 56l372 -24l64 -12l4 -20l-416 28l-124 -16l-12 4l-4 20c53.333 7.33301 92 14 116 20z" />
    <glyph glyph-name="quoteleft" unicode="&#x2018;" horiz-adv-x="88" 
d="M36 940l24 -4l-16 -64l24 -72l-32 20l-16 40v44z" />
    <glyph glyph-name="quoteright" unicode="&#x2019;" horiz-adv-x="96" 
d="M20 940l32 -24l16 -36l8 -44l-16 -36l-24 4l12 36c-18 52 -27.333 85.333 -28 100z" />
    <glyph glyph-name="quotesinglbase" unicode="&#x201a;" 
 />
    <glyph glyph-name="quotereversed" unicode="&#x201b;" 
 />
    <glyph glyph-name="quotedblleft" unicode="&#x201c;" horiz-adv-x="180" 
d="M88 1008l24 -4l-64 -108l28 -96c-17.333 6.66699 -33.333 18.667 -48 36l-8 60l32 64zM136 980l24 -4l-28 -64l28 -80l-40 20l-16 44l12 48z" />
    <glyph glyph-name="quotedblright" unicode="&#x201d;" horiz-adv-x="180" 
d="M80 972l48 -23.999l24 -44l8 -52l-32 -52l-24 4l16 28l12 40c-30.667 49.333 -48 82.666 -52 99.999zM20 936.001c21.333 -8.66699 38.667 -24.667 52 -48l4 -52l-16 -28l-24 4l8 56c-10 20 -18 42.667 -24 68z" />
    <glyph glyph-name="quotedblbase" unicode="&#x201e;" 
 />
    <glyph glyph-name="dagger" unicode="&#x2020;" 
 />
    <glyph glyph-name="daggerdbl" unicode="&#x2021;" 
 />
    <glyph glyph-name="bullet" unicode="&#x2022;" horiz-adv-x="400" 
d="M182 712l72 -166l126 52l-117 -140l72 -88l-27 -17l-63 61l-72 -26l-63 -44l45 79l-90 26l-45 -17l36 43l99 27l27 105l-9 79zM200 493l-9 -35l27 17c-1.33301 8 -7.33301 14 -18 18z" />
    <glyph glyph-name="ellipsis" unicode="&#x2026;" 
 />
    <glyph glyph-name="perthousand" unicode="&#x2030;" 
 />
    <glyph glyph-name="minute" unicode="&#x2032;" 
 />
    <glyph glyph-name="second" unicode="&#x2033;" 
 />
    <glyph glyph-name="guilsinglleft" unicode="&#x2039;" 
 />
    <glyph glyph-name="guilsinglright" unicode="&#x203a;" 
 />
    <glyph glyph-name="exclamdbl" unicode="&#x203c;" 
 />
    <glyph glyph-name="radicalex" unicode="&#x203e;" horiz-adv-x="596" 
d="M136 876l372 -24l64 -12l4 -20l-416 28l-124 -16l-12 4l-4 20c53.333 7.33301 92 14 116 20z" />
    <glyph glyph-name="fraction" unicode="&#x2044;" 
 />
    <glyph glyph-name="fraction" unicode="&#x2215;" 
 />
    <glyph glyph-name="nsuperior" unicode="&#x207f;" 
 />
    <glyph glyph-name="franc" unicode="&#x20a3;" 
 />
    <glyph glyph-name="afii08941" unicode="&#x20a4;" horiz-adv-x="496" 
d="M284 800l52 -10l36 -30l20 -45l12 -60v-75l-12 -55c-5.33301 -18.667 -16 -28.667 -32 -30l16 115l-4 65l-16 55l-44 35l-32 -10l-36 -25l-24 -45l-28 -110l-4 -70l8 -105l120 20c16 -0.666992 25.333 -10.667 28 -30l-108 -15l-32 -20l28 -180l136 -45l108 -15
c-8.66699 -16 -22 -24.333 -40 -25h-60l-96 25l-40 20l-28 -25l-16 -55l-72 -55l-56 5l-48 40l28 85l64 70l52 5l28 -10l-16 150l-44 15l-20 40l48 -5l4 190l12 60l36 100zM124 170l-63.999 -80l-8 -30l16 -15l40 -10l52 30l32 90c-26.667 8 -49.334 13 -68.001 15z
M125.001 275l205 15l5 -35l-200 -15z" />
    <glyph glyph-name="peseta" unicode="&#x20a7;" 
 />
    <glyph glyph-name="Euro" unicode="&#x20ac;" 
 />
    <glyph glyph-name="afii61248" unicode="&#x2105;" 
 />
    <glyph glyph-name="afii61289" unicode="&#x2113;" 
 />
    <glyph glyph-name="afii61352" unicode="&#x2116;" 
 />
    <glyph glyph-name="trademark" unicode="&#x2122;" horiz-adv-x="376" 
d="M296 984c16 -6 26.667 -18 32 -36l28 -96l-4 -20l-28 12l-28 72l-36 -28l-36 24l-4 -60l-8 -24l-24 8l8 116l8 24l24 -12l20 -40l28 16zM136 972l40 -4l-12 -24l-64 -8l-4 -112l-24 16v76l-52 20c10.667 18 28 27.333 52 28z" />
    <glyph glyph-name="Ohm" unicode="&#x2126;" 
 />
    <glyph glyph-name="estimated" unicode="&#x212e;" 
 />
    <glyph glyph-name="oneeighth" unicode="&#x215b;" 
 />
    <glyph glyph-name="threeeighths" unicode="&#x215c;" 
 />
    <glyph glyph-name="fiveeighths" unicode="&#x215d;" 
 />
    <glyph glyph-name="seveneighths" unicode="&#x215e;" 
 />
    <glyph glyph-name="arrowleft" unicode="&#x2190;" 
 />
    <glyph glyph-name="arrowup" unicode="&#x2191;" 
 />
    <glyph glyph-name="arrowright" unicode="&#x2192;" 
 />
    <glyph glyph-name="arrowdown" unicode="&#x2193;" 
 />
    <glyph glyph-name="arrowboth" unicode="&#x2194;" 
 />
    <glyph glyph-name="arrowupdn" unicode="&#x2195;" 
 />
    <glyph glyph-name="arrowupdnbse" unicode="&#x21a8;" 
 />
    <glyph glyph-name="partialdiff" unicode="&#x2202;" 
 />
    <glyph glyph-name="uni2206" unicode="&#x2206;" 
 />
    <glyph glyph-name="product" unicode="&#x220f;" 
 />
    <glyph glyph-name="summation" unicode="&#x2211;" 
 />
    <glyph glyph-name="minus" unicode="&#x2212;" horiz-adv-x="300" 
d="M196 428l76 -4.00098l8 -24l-240 -20l-12 4l-8 24c93.333 8.66699 152 15.334 176 20.001z" />
    <glyph glyph-name="radical" unicode="&#x221a;" horiz-adv-x="304" 
d="M252 820l32.001 -7.99902v-41l-76 -40v-707l-32 -24l-156 317l8 24l24 -16l56 -90l76 -154l-8 690c23.333 11.333 48.666 27.666 75.999 48.999z" />
    <glyph glyph-name="infinity" unicode="&#x221e;" horiz-adv-x="684" 
d="M192 624l64 -8l44 -24l36 -36l12 -56l32 20l32 36l80 60l64 4l52 -20l36 -32l20 -52v-60l-24 -44l-36 -36l-56 -12l-64 8l-100 40l-32 36l-40 -28l-100 -40l-60 -8l-64 8l-44 24l-24 48l16 52l60 76zM204 596l-88 -36l-52 -64l-16 -44l28 -32l40 -20l56 4l48 12l84 36
l20 28l-36 84l-36 24zM512 592l-40 -20l-96 -100l12 -24l76 -40l48 -12l52 -4l40 20l24 36l12 44l-12 44l-24 32l-44 16c-14.667 4 -30.667 6.66699 -48 8z" />
    <glyph glyph-name="orthogonal" unicode="&#x221f;" 
 />
    <glyph glyph-name="intersection" unicode="&#x2229;" 
 />
    <glyph glyph-name="integral" unicode="&#x222b;" 
 />
    <glyph glyph-name="approxequal" unicode="&#x2248;" 
 />
    <glyph glyph-name="notequal" unicode="&#x2260;" horiz-adv-x="512" 
d="M424 952l24 -4l-8 -24l-144 -168l-12 -28l204 4l4 -24l-228 -8l-32 -20l-56 -80l280 -8v-20h-300l-32 -16l-76 -80l-24 -8l-4 20l76 80l-44 8c-10 6 -16.667 15.333 -20 28l28 8l8 -8l48 -4l28 20l60 76l-156 -4l-4 16l40 12l152 4l116 144l28 24l20 32z" />
    <glyph glyph-name="equivalence" unicode="&#x2261;" 
 />
    <glyph glyph-name="lessequal" unicode="&#x2264;" horiz-adv-x="560" 
d="M348 732l24 -6l-56 -104l-260 -286l56 -28l396 -99l32 -16l-12 -33l-460 121l-48 44l28 66l184 181zM244 66l236 -5l44 -22l-4 -22l-212 11l-200 -28l-8 17l44 27z" />
    <glyph glyph-name="greaterequal" unicode="&#x2265;" horiz-adv-x="512" 
d="M40 748l348 -260l-8 -47l-84 -60l-260 -134l-8 20l36 40l268 147l-204 154l-76 73c-6.66699 18.667 -10.667 41 -12 67zM324 100l116 -33.001l52 -34l-4 -33l-216 60l-132 7l-108 -20l-12 13c8.66699 20.667 22 36.334 40 47.001z" />
    <glyph glyph-name="house" unicode="&#x2302;" 
 />
    <glyph glyph-name="revlogicalnot" unicode="&#x2310;" 
 />
    <glyph glyph-name="integraltp" unicode="&#x2320;" 
 />
    <glyph glyph-name="integralbt" unicode="&#x2321;" 
 />
    <glyph glyph-name="SF100000" unicode="&#x2500;" 
 />
    <glyph glyph-name="SF110000" unicode="&#x2502;" 
 />
    <glyph glyph-name="SF010000" unicode="&#x250c;" 
 />
    <glyph glyph-name="SF030000" unicode="&#x2510;" 
 />
    <glyph glyph-name="SF020000" unicode="&#x2514;" 
 />
    <glyph glyph-name="SF040000" unicode="&#x2518;" 
 />
    <glyph glyph-name="SF080000" unicode="&#x251c;" 
 />
    <glyph glyph-name="SF090000" unicode="&#x2524;" 
 />
    <glyph glyph-name="SF060000" unicode="&#x252c;" 
 />
    <glyph glyph-name="SF070000" unicode="&#x2534;" 
 />
    <glyph glyph-name="SF050000" unicode="&#x253c;" 
 />
    <glyph glyph-name="SF430000" unicode="&#x2550;" 
 />
    <glyph glyph-name="SF240000" unicode="&#x2551;" 
 />
    <glyph glyph-name="SF510000" unicode="&#x2552;" 
 />
    <glyph glyph-name="SF520000" unicode="&#x2553;" 
 />
    <glyph glyph-name="SF390000" unicode="&#x2554;" 
 />
    <glyph glyph-name="SF220000" unicode="&#x2555;" 
 />
    <glyph glyph-name="SF210000" unicode="&#x2556;" 
 />
    <glyph glyph-name="SF250000" unicode="&#x2557;" 
 />
    <glyph glyph-name="SF500000" unicode="&#x2558;" 
 />
    <glyph glyph-name="SF490000" unicode="&#x2559;" 
 />
    <glyph glyph-name="SF380000" unicode="&#x255a;" 
 />
    <glyph glyph-name="SF280000" unicode="&#x255b;" 
 />
    <glyph glyph-name="SF270000" unicode="&#x255c;" 
 />
    <glyph glyph-name="SF260000" unicode="&#x255d;" 
 />
    <glyph glyph-name="SF360000" unicode="&#x255e;" 
 />
    <glyph glyph-name="SF370000" unicode="&#x255f;" 
 />
    <glyph glyph-name="SF420000" unicode="&#x2560;" 
 />
    <glyph glyph-name="SF190000" unicode="&#x2561;" 
 />
    <glyph glyph-name="SF200000" unicode="&#x2562;" 
 />
    <glyph glyph-name="SF230000" unicode="&#x2563;" 
 />
    <glyph glyph-name="SF470000" unicode="&#x2564;" 
 />
    <glyph glyph-name="SF480000" unicode="&#x2565;" 
 />
    <glyph glyph-name="SF410000" unicode="&#x2566;" 
 />
    <glyph glyph-name="SF450000" unicode="&#x2567;" 
 />
    <glyph glyph-name="SF460000" unicode="&#x2568;" 
 />
    <glyph glyph-name="SF400000" unicode="&#x2569;" 
 />
    <glyph glyph-name="SF540000" unicode="&#x256a;" 
 />
    <glyph glyph-name="SF530000" unicode="&#x256b;" 
 />
    <glyph glyph-name="SF440000" unicode="&#x256c;" 
 />
    <glyph glyph-name="upblock" unicode="&#x2580;" 
 />
    <glyph glyph-name="dnblock" unicode="&#x2584;" 
 />
    <glyph glyph-name="block" unicode="&#x2588;" 
 />
    <glyph glyph-name="lfblock" unicode="&#x258c;" 
 />
    <glyph glyph-name="rtblock" unicode="&#x2590;" 
 />
    <glyph glyph-name="ltshade" unicode="&#x2591;" 
 />
    <glyph glyph-name="shade" unicode="&#x2592;" 
 />
    <glyph glyph-name="dkshade" unicode="&#x2593;" 
 />
    <glyph glyph-name="filledbox" unicode="&#x25a0;" 
 />
    <glyph glyph-name="H22073" unicode="&#x25a1;" 
 />
    <glyph glyph-name="H18543" unicode="&#x25aa;" 
 />
    <glyph glyph-name="H18551" unicode="&#x25ab;" 
 />
    <glyph glyph-name="filledrect" unicode="&#x25ac;" 
 />
    <glyph glyph-name="triagup" unicode="&#x25b2;" horiz-adv-x="748" 
d="M268 828l267.001 -320.001l138 -276c29.333 -31.333 47.666 -79.666 54.999 -144.999l-423 -14l-248 -73l-37 15l28 174l174 479zM296.001 667.999l-184 -537l496 43l-193 363z" />
    <glyph glyph-name="triagrt" unicode="&#x25ba;" 
 />
    <glyph glyph-name="triagdn" unicode="&#x25bc;" 
 />
    <glyph glyph-name="triaglf" unicode="&#x25c4;" 
 />
    <glyph glyph-name="lozenge" unicode="&#x25ca;" 
 />
    <glyph glyph-name="circle" unicode="&#x25cb;" 
 />
    <glyph glyph-name="H18533" unicode="&#x25cf;" 
 />
    <glyph glyph-name="invbullet" unicode="&#x25d8;" 
 />
    <glyph glyph-name="invcircle" unicode="&#x25d9;" 
 />
    <glyph glyph-name="openbullet" unicode="&#x25e6;" 
 />
    <glyph glyph-name="smileface" unicode="&#x263a;" 
 />
    <glyph glyph-name="invsmileface" unicode="&#x263b;" 
 />
    <glyph glyph-name="sun" unicode="&#x263c;" 
 />
    <glyph glyph-name="female" unicode="&#x2640;" 
 />
    <glyph glyph-name="male" unicode="&#x2642;" 
 />
    <glyph glyph-name="spade" unicode="&#x2660;" 
 />
    <glyph glyph-name="club" unicode="&#x2663;" 
 />
    <glyph glyph-name="heart" unicode="&#x2665;" horiz-adv-x="708" 
d="M556 552h76l48 -28l8 -52l-16 -76l-44 -104l-100 -124l-44 -32l-52 -20l-4 -16l-108 96l-200 100l-88 60l-12 56l36 40l48 24l64 12l68 -12l52 -20l36 -36l32 32l88 64zM560 540l-108 -36l-88 -60l-24 -44l-76 56l-56 16l-64 4l-56 -16l-44 -32l-12 -48l32 -40l284 -148
l76 -68l48 20l44 32l36 36l60 80l48 100l12 56v64l-44 28h-68z" />
    <glyph glyph-name="diamond" unicode="&#x2666;" 
 />
    <glyph glyph-name="musicalnote" unicode="&#x266a;" 
 />
    <glyph glyph-name="musicalnotedbl" unicode="&#x266b;" 
 />
    <glyph glyph-name="fi" unicode="&#xf001;" 
 />
    <glyph glyph-name="fi" unicode="&#xfb01;" 
 />
    <glyph glyph-name="fl" unicode="&#xf002;" 
 />
    <glyph glyph-name="fl" unicode="&#xfb02;" 
 />
    <glyph glyph-name="commaaccent" unicode="&#xf004;" 
 />
    <glyph glyph-name="undercommaaccent" unicode="&#xf005;" 
 />
    <glyph glyph-name=".null" 
 />
    <glyph glyph-name="nonmarkingreturn" 
 />
    <glyph glyph-name="pi1" 
 />
    <glyph glyph-name="middot" 
 />
  </font>
</defs>
</svg>
